<svg width="24" height="24" viewBox="0 0 24 24" fill="none" xmlns="http://www.w3.org/2000/svg">
<path d="M18.6172 12.5542C18.0328 11.8717 17.7672 11.2803 17.7672 10.2756V9.934C17.7672 8.62472 17.4659 7.78114 16.8107 6.93757C15.801 5.62748 14.1011 4.83789 12.4369 4.83789H12.3662C10.737 4.83789 9.09041 5.59123 8.06316 6.84813C7.37223 7.70863 7.0359 8.58846 7.0359 9.934V10.2756C7.0359 11.2803 6.78784 11.8717 6.18595 12.5542C5.74309 13.0569 5.60156 13.7031 5.60156 14.4025C5.60156 15.1026 5.83134 15.7657 6.29249 16.3047C6.89438 16.9509 7.74433 17.3634 8.61257 17.4351C9.8696 17.5786 11.1266 17.6325 12.402 17.6325C13.6765 17.6325 14.9335 17.5423 16.1914 17.4351C17.0588 17.3634 17.9087 16.9509 18.5106 16.3047C18.971 15.7657 19.2016 15.1026 19.2016 14.4025C19.2016 13.7031 19.06 13.0569 18.6172 12.5542Z" fill="black"/>
<path opacity="0.4" d="M14.0187 18.4957C13.6188 18.4103 11.1818 18.4103 10.7819 18.4957C10.44 18.5747 10.0703 18.7584 10.0703 19.1612C10.0902 19.5455 10.3152 19.8847 10.6269 20.0999L10.6261 20.1007C11.0292 20.4149 11.5023 20.6147 11.9976 20.6864C12.2616 20.7227 12.5303 20.7211 12.8038 20.6864C13.2984 20.6147 13.7715 20.4149 14.1746 20.1007L14.1738 20.0999C14.4854 19.8847 14.7105 19.5455 14.7303 19.1612C14.7303 18.7584 14.3606 18.5747 14.0187 18.4957Z" fill="black"/>
<circle cx="17" cy="5" r="2.5" fill="#538D60" stroke="white"/>
</svg>
