<svg width="651" height="557" viewBox="0 0 651 557" fill="none" xmlns="http://www.w3.org/2000/svg">
<rect x="99" width="562" height="554" rx="13.1094" fill="#F6F7F9"/>
<g clip-path="url(#clip0_1_75052)">
<rect width="245.145" height="981.892" transform="translate(99 52.4375)" fill="white"/>
<path d="M135.703 183.496H142.695V174.757H135.703V183.496ZM135.703 190.488H142.695V185.244H135.703V190.488ZM144.443 190.488H151.434V181.749H144.443V190.488ZM144.443 174.757V180.001H151.434V174.757H144.443Z" fill="#717171"/>
<path d="M166.269 189.123V176.092H170.013C172.007 176.092 173.659 176.71 174.968 177.946C176.289 179.182 176.95 180.736 176.95 182.608C176.95 184.48 176.289 186.034 174.968 187.269C173.659 188.505 172.007 189.123 170.013 189.123H166.269ZM167.975 187.526H170.013C171.567 187.526 172.821 187.067 173.775 186.15C174.742 185.22 175.225 184.039 175.225 182.608C175.225 181.176 174.742 180.002 173.775 179.084C172.821 178.154 171.567 177.689 170.013 177.689H167.975V187.526ZM182.382 189.307C181.11 189.307 180.039 188.842 179.171 187.912C178.314 186.982 177.886 185.856 177.886 184.535C177.886 183.213 178.314 182.088 179.171 181.158C180.039 180.228 181.11 179.763 182.382 179.763C183.055 179.763 183.679 179.916 184.255 180.222C184.842 180.515 185.295 180.895 185.613 181.36V179.946H187.191V189.123H185.613V187.71C185.295 188.175 184.842 188.56 184.255 188.866C183.679 189.16 183.055 189.307 182.382 189.307ZM182.621 187.857C183.527 187.857 184.273 187.539 184.86 186.902C185.447 186.266 185.741 185.477 185.741 184.535C185.741 183.593 185.447 182.803 184.86 182.167C184.273 181.531 183.527 181.213 182.621 181.213C181.703 181.213 180.951 181.531 180.364 182.167C179.776 182.803 179.483 183.593 179.483 184.535C179.483 185.477 179.776 186.266 180.364 186.902C180.951 187.539 181.703 187.857 182.621 187.857ZM192.461 189.307C191.434 189.307 190.571 189.056 189.874 188.554C189.188 188.052 188.809 187.355 188.736 186.462H190.351C190.449 186.976 190.693 187.355 191.085 187.6C191.489 187.844 191.954 187.967 192.48 187.967C193.006 187.967 193.428 187.863 193.746 187.655C194.077 187.447 194.242 187.147 194.242 186.755C194.242 186.388 194.119 186.089 193.875 185.856C193.642 185.624 193.257 185.434 192.718 185.287L191.397 184.939C189.819 184.523 189.029 183.623 189.029 182.241C189.029 181.494 189.323 180.895 189.91 180.442C190.51 179.989 191.275 179.763 192.205 179.763C193.147 179.763 193.917 180.014 194.517 180.515C195.129 181.005 195.471 181.629 195.545 182.387H193.966C193.844 181.984 193.624 181.666 193.306 181.433C193 181.201 192.633 181.084 192.205 181.084C191.752 181.084 191.372 181.188 191.067 181.396C190.773 181.604 190.626 181.88 190.626 182.222C190.626 182.553 190.736 182.822 190.956 183.03C191.177 183.238 191.532 183.409 192.021 183.544L193.489 183.929C195.055 184.321 195.838 185.226 195.838 186.645C195.838 187.526 195.526 188.193 194.902 188.646C194.278 189.086 193.465 189.307 192.461 189.307ZM198.997 189.123H197.418V175.358H198.997V181.36C199.621 180.295 200.593 179.763 201.915 179.763C202.955 179.763 203.793 180.099 204.429 180.772C205.065 181.445 205.384 182.345 205.384 183.47V189.123H203.824V183.709C203.824 182.938 203.628 182.332 203.236 181.892C202.845 181.439 202.319 181.213 201.658 181.213C200.899 181.213 200.263 181.513 199.749 182.112C199.248 182.712 198.997 183.531 198.997 184.571V189.123ZM212.379 189.307C211.706 189.307 211.076 189.16 210.489 188.866C209.913 188.56 209.467 188.175 209.149 187.71V189.123H207.57V175.358H209.149V181.36C209.467 180.895 209.913 180.515 210.489 180.222C211.076 179.916 211.706 179.763 212.379 179.763C213.651 179.763 214.716 180.228 215.572 181.158C216.441 182.088 216.875 183.213 216.875 184.535C216.875 185.856 216.441 186.982 215.572 187.912C214.716 188.842 213.651 189.307 212.379 189.307ZM209.901 186.902C210.489 187.539 211.235 187.857 212.14 187.857C213.046 187.857 213.792 187.539 214.379 186.902C214.967 186.266 215.26 185.477 215.26 184.535C215.26 183.593 214.967 182.803 214.379 182.167C213.792 181.531 213.046 181.213 212.14 181.213C211.235 181.213 210.489 181.531 209.901 182.167C209.314 182.803 209.02 183.593 209.02 184.535C209.02 185.477 209.314 186.266 209.901 186.902ZM222.55 189.307C221.167 189.307 220.017 188.848 219.099 187.93C218.194 187 217.741 185.868 217.741 184.535C217.741 183.201 218.194 182.075 219.099 181.158C220.017 180.228 221.167 179.763 222.55 179.763C223.92 179.763 225.058 180.228 225.963 181.158C226.881 182.075 227.34 183.201 227.34 184.535C227.34 185.868 226.881 187 225.963 187.93C225.058 188.848 223.92 189.307 222.55 189.307ZM220.237 186.884C220.837 187.52 221.608 187.838 222.55 187.838C223.492 187.838 224.256 187.52 224.844 186.884C225.431 186.248 225.725 185.465 225.725 184.535C225.725 183.605 225.431 182.822 224.844 182.186C224.256 181.549 223.492 181.231 222.55 181.231C221.608 181.231 220.837 181.549 220.237 182.186C219.65 182.822 219.356 183.605 219.356 184.535C219.356 185.465 219.65 186.248 220.237 186.884ZM232.731 189.307C231.458 189.307 230.388 188.842 229.519 187.912C228.662 186.982 228.234 185.856 228.234 184.535C228.234 183.213 228.662 182.088 229.519 181.158C230.388 180.228 231.458 179.763 232.731 179.763C233.404 179.763 234.028 179.916 234.603 180.222C235.19 180.515 235.643 180.895 235.961 181.36V179.946H237.539V189.123H235.961V187.71C235.643 188.175 235.19 188.56 234.603 188.866C234.028 189.16 233.404 189.307 232.731 189.307ZM232.969 187.857C233.875 187.857 234.621 187.539 235.208 186.902C235.796 186.266 236.089 185.477 236.089 184.535C236.089 183.593 235.796 182.803 235.208 182.167C234.621 181.531 233.875 181.213 232.969 181.213C232.052 181.213 231.299 181.531 230.712 182.167C230.125 182.803 229.831 183.593 229.831 184.535C229.831 185.477 230.125 186.266 230.712 186.902C231.299 187.539 232.052 187.857 232.969 187.857ZM239.855 189.123V179.946H241.433V181.727C241.604 181.164 241.935 180.711 242.424 180.369C242.926 180.026 243.452 179.855 244.003 179.855C244.272 179.855 244.51 179.879 244.718 179.928V181.562C244.498 181.464 244.211 181.415 243.856 181.415C243.22 181.415 242.657 181.69 242.167 182.241C241.678 182.791 241.433 183.568 241.433 184.571V189.123H239.855ZM249.396 189.307C248.124 189.307 247.053 188.842 246.185 187.912C245.328 186.982 244.9 185.856 244.9 184.535C244.9 183.213 245.328 182.088 246.185 181.158C247.053 180.228 248.124 179.763 249.396 179.763C250.069 179.763 250.693 179.916 251.269 180.222C251.856 180.515 252.309 180.895 252.627 181.36V175.358H254.205V189.123H252.627V187.71C252.309 188.175 251.856 188.56 251.269 188.866C250.693 189.16 250.069 189.307 249.396 189.307ZM249.635 187.857C250.541 187.857 251.287 187.539 251.874 186.902C252.461 186.266 252.755 185.477 252.755 184.535C252.755 183.593 252.461 182.803 251.874 182.167C251.287 181.531 250.541 181.213 249.635 181.213C248.717 181.213 247.965 181.531 247.378 182.167C246.79 182.803 246.497 183.593 246.497 184.535C246.497 185.477 246.79 186.266 247.378 186.902C247.965 187.539 248.717 187.857 249.635 187.857Z" fill="#717171"/>
<rect x="116.039" y="218.926" width="209.75" height="48.5047" rx="5.24375" fill="black"/>
<g clip-path="url(#clip1_1_75052)">
<path d="M141.626 239.458C143.557 239.458 145.122 237.893 145.122 235.963C145.122 234.032 143.557 232.467 141.626 232.467C139.696 232.467 138.13 234.032 138.13 235.963C138.13 237.893 139.696 239.458 141.626 239.458Z" fill="white"/>
<path d="M142.662 249.667C142.47 249.476 142.344 249.229 142.304 248.961C142.264 248.693 142.312 248.419 142.441 248.181L142.75 247.599L142.115 247.406C141.856 247.325 141.63 247.162 141.472 246.941C141.315 246.72 141.233 246.454 141.241 246.183V244.988C141.24 244.718 141.327 244.455 141.487 244.238C141.648 244.021 141.874 243.861 142.132 243.782L142.767 243.59L142.464 243.007C142.339 242.772 142.292 242.504 142.328 242.24C142.365 241.977 142.484 241.731 142.668 241.539C142.22 241.48 141.768 241.449 141.316 241.446C139.981 241.414 138.656 241.678 137.434 242.218C136.212 242.758 135.125 243.56 134.249 244.569V249.084C134.249 249.239 134.31 249.387 134.42 249.496C134.529 249.606 134.677 249.667 134.832 249.667H142.662Z" fill="white"/>
<path d="M152.717 244.797L151.552 244.447C151.471 244.16 151.358 243.882 151.214 243.62L151.797 242.536C151.819 242.496 151.827 242.449 151.82 242.404C151.813 242.358 151.79 242.317 151.756 242.286L150.911 241.435C150.878 241.403 150.837 241.383 150.792 241.375C150.747 241.368 150.701 241.375 150.66 241.394L149.583 241.977C149.317 241.833 149.038 241.716 148.749 241.627L148.394 240.462C148.378 240.419 148.35 240.382 148.312 240.356C148.275 240.33 148.23 240.316 148.184 240.316H146.972C146.927 240.318 146.883 240.333 146.846 240.36C146.81 240.387 146.783 240.425 146.768 240.468L146.419 241.633C146.124 241.719 145.841 241.838 145.574 241.989L144.519 241.406C144.478 241.384 144.432 241.376 144.386 241.382C144.34 241.388 144.297 241.409 144.263 241.441L143.407 242.28C143.373 242.312 143.351 242.355 143.343 242.401C143.336 242.448 143.344 242.495 143.366 242.536L143.948 243.597C143.792 243.86 143.665 244.139 143.57 244.43L142.404 244.785C142.36 244.798 142.322 244.825 142.294 244.862C142.267 244.899 142.252 244.943 142.253 244.989V246.184C142.252 246.229 142.267 246.274 142.294 246.311C142.322 246.348 142.36 246.375 142.404 246.388L143.57 246.743C143.657 247.028 143.774 247.304 143.919 247.564L143.337 248.671C143.315 248.713 143.307 248.76 143.314 248.806C143.321 248.853 143.344 248.895 143.377 248.928L144.246 249.773C144.279 249.805 144.322 249.825 144.368 249.831C144.414 249.838 144.461 249.829 144.502 249.808L145.591 249.225C145.851 249.364 146.124 249.476 146.407 249.557L146.757 250.751C146.771 250.796 146.8 250.834 146.837 250.861C146.875 250.888 146.92 250.903 146.966 250.903H148.161C148.206 250.902 148.25 250.886 148.287 250.859C148.323 250.832 148.35 250.795 148.365 250.751L148.714 249.557C148.994 249.477 149.264 249.365 149.518 249.225L150.62 249.808C150.661 249.829 150.707 249.838 150.753 249.831C150.799 249.825 150.842 249.805 150.876 249.773L151.727 248.928C151.759 248.894 151.779 248.851 151.785 248.805C151.792 248.759 151.783 248.712 151.762 248.671L151.179 247.576C151.318 247.321 151.43 247.051 151.511 246.772L152.676 246.417C152.72 246.403 152.759 246.376 152.787 246.339C152.815 246.303 152.831 246.259 152.834 246.213V245.007C152.835 244.964 152.825 244.923 152.804 244.886C152.784 244.849 152.754 244.818 152.717 244.797ZM147.572 247.547C147.187 247.548 146.81 247.435 146.49 247.222C146.169 247.009 145.919 246.705 145.77 246.35C145.622 245.994 145.583 245.603 145.657 245.225C145.732 244.847 145.917 244.5 146.189 244.227C146.46 243.954 146.807 243.768 147.185 243.693C147.562 243.617 147.954 243.655 148.31 243.803C148.666 243.95 148.97 244.199 149.184 244.519C149.398 244.839 149.513 245.216 149.513 245.601C149.513 246.116 149.308 246.61 148.945 246.975C148.581 247.34 148.088 247.545 147.572 247.547Z" fill="white"/>
</g>
<path d="M164.654 248.115L170.416 235.085H171.83L177.611 248.115H175.831L174.142 244.316H168.067L166.415 248.115H164.654ZM171.096 237.397L168.746 242.774H173.463L171.096 237.397ZM182.167 248.299C180.895 248.299 179.824 247.834 178.956 246.904C178.099 245.974 177.671 244.848 177.671 243.527C177.671 242.206 178.099 241.08 178.956 240.15C179.824 239.22 180.895 238.755 182.167 238.755C182.84 238.755 183.464 238.908 184.039 239.214C184.627 239.508 185.079 239.887 185.398 240.352V234.35H186.976V248.115H185.398V246.702C185.079 247.167 184.627 247.552 184.039 247.858C183.464 248.152 182.84 248.299 182.167 248.299ZM182.406 246.849C183.311 246.849 184.058 246.531 184.645 245.895C185.232 245.258 185.526 244.469 185.526 243.527C185.526 242.585 185.232 241.796 184.645 241.159C184.058 240.523 183.311 240.205 182.406 240.205C181.488 240.205 180.736 240.523 180.149 241.159C179.561 241.796 179.268 242.585 179.268 243.527C179.268 244.469 179.561 245.258 180.149 245.895C180.736 246.531 181.488 246.849 182.406 246.849ZM201.111 248.115V242.719C201.111 241.961 200.952 241.355 200.634 240.902C200.328 240.438 199.881 240.205 199.294 240.205C198.56 240.205 197.96 240.493 197.495 241.068C197.043 241.643 196.804 242.426 196.78 243.417V248.115H195.201V242.719C195.201 241.949 195.042 241.337 194.724 240.884C194.418 240.431 193.978 240.205 193.403 240.205C192.644 240.205 192.032 240.511 191.567 241.123C191.102 241.722 190.87 242.536 190.87 243.564V248.115H189.292V238.939H190.87V240.352C191.457 239.287 192.381 238.755 193.641 238.755C195.036 238.755 195.978 239.41 196.468 240.719C196.712 240.119 197.104 239.642 197.642 239.287C198.181 238.933 198.792 238.755 199.478 238.755C200.469 238.755 201.252 239.092 201.827 239.765C202.402 240.438 202.689 241.343 202.689 242.481V248.115H201.111ZM206.471 236.167C206.263 236.375 206 236.479 205.682 236.479C205.364 236.479 205.095 236.375 204.874 236.167C204.654 235.947 204.544 235.678 204.544 235.36C204.544 235.054 204.654 234.791 204.874 234.571C205.095 234.35 205.364 234.24 205.682 234.24C206 234.24 206.263 234.35 206.471 234.571C206.679 234.791 206.783 235.054 206.783 235.36C206.783 235.678 206.679 235.947 206.471 236.167ZM204.874 248.115V238.939H206.453V248.115H204.874ZM208.789 248.115V238.939H210.368V240.352C210.992 239.287 211.964 238.755 213.286 238.755C214.326 238.755 215.164 239.092 215.8 239.765C216.436 240.438 216.754 241.337 216.754 242.462V248.115H215.194V242.701C215.194 241.93 214.999 241.325 214.607 240.884C214.216 240.431 213.689 240.205 213.029 240.205C212.27 240.205 211.634 240.505 211.12 241.104C210.618 241.704 210.368 242.524 210.368 243.564V248.115H208.789ZM221.896 248.299C220.868 248.299 220.006 248.048 219.308 247.546C218.623 247.045 218.244 246.347 218.17 245.454H219.785C219.883 245.968 220.128 246.347 220.52 246.592C220.923 246.837 221.388 246.959 221.914 246.959C222.441 246.959 222.863 246.855 223.181 246.647C223.511 246.439 223.676 246.139 223.676 245.748C223.676 245.381 223.554 245.081 223.309 244.848C223.077 244.616 222.691 244.426 222.153 244.279L220.832 243.931C219.253 243.515 218.464 242.615 218.464 241.233C218.464 240.486 218.758 239.887 219.345 239.434C219.945 238.981 220.709 238.755 221.639 238.755C222.581 238.755 223.352 239.006 223.952 239.508C224.563 239.997 224.906 240.621 224.979 241.38H223.401C223.279 240.976 223.058 240.658 222.74 240.425C222.434 240.193 222.067 240.077 221.639 240.077C221.186 240.077 220.807 240.181 220.501 240.389C220.208 240.597 220.061 240.872 220.061 241.214C220.061 241.545 220.171 241.814 220.391 242.022C220.611 242.23 220.966 242.401 221.456 242.536L222.924 242.921C224.49 243.313 225.273 244.218 225.273 245.638C225.273 246.519 224.961 247.185 224.337 247.638C223.713 248.079 222.899 248.299 221.896 248.299Z" fill="white"/>
<path d="M147.063 304.976V306.724H134.828V304.976C134.828 304.976 134.828 301.48 140.945 301.48C147.063 301.48 147.063 304.976 147.063 304.976ZM144.004 296.673C144.004 296.068 143.825 295.477 143.489 294.974C143.153 294.471 142.675 294.079 142.116 293.847C141.557 293.616 140.942 293.555 140.349 293.673C139.755 293.791 139.21 294.082 138.782 294.51C138.355 294.938 138.063 295.483 137.945 296.076C137.827 296.67 137.888 297.285 138.119 297.844C138.351 298.403 138.743 298.88 139.246 299.217C139.749 299.553 140.34 299.732 140.945 299.732C141.757 299.732 142.535 299.41 143.108 298.836C143.682 298.262 144.004 297.484 144.004 296.673ZM147.011 301.48C147.548 301.896 147.988 302.424 148.299 303.028C148.61 303.632 148.785 304.297 148.811 304.976V306.724H152.307V304.976C152.307 304.976 152.307 301.803 147.011 301.48ZM146.189 293.614C145.588 293.611 144.999 293.791 144.502 294.13C145.033 294.872 145.319 295.761 145.319 296.673C145.319 297.585 145.033 298.475 144.502 299.216C144.999 299.556 145.588 299.735 146.189 299.732C147 299.732 147.778 299.41 148.352 298.836C148.926 298.262 149.248 297.484 149.248 296.673C149.248 295.862 148.926 295.084 148.352 294.51C147.778 293.937 147 293.614 146.189 293.614Z" fill="#717171"/>
<path d="M174.895 305.896C173.952 306.85 172.723 307.328 171.206 307.328C169.688 307.328 168.459 306.85 167.517 305.896C166.575 304.93 166.103 303.645 166.103 302.042V294.077H167.81V302.079C167.81 303.241 168.116 304.14 168.728 304.777C169.34 305.401 170.166 305.713 171.206 305.713C172.246 305.713 173.072 305.401 173.683 304.777C174.295 304.14 174.601 303.241 174.601 302.079V294.077H176.308V302.042C176.308 303.645 175.837 304.93 174.895 305.896ZM181.467 307.291C180.439 307.291 179.577 307.04 178.879 306.538C178.194 306.037 177.815 305.339 177.741 304.446H179.356C179.454 304.96 179.699 305.339 180.09 305.584C180.494 305.829 180.959 305.951 181.485 305.951C182.011 305.951 182.434 305.847 182.752 305.639C183.082 305.431 183.247 305.131 183.247 304.74C183.247 304.373 183.125 304.073 182.88 303.841C182.648 303.608 182.262 303.418 181.724 303.272L180.403 302.923C178.824 302.507 178.035 301.608 178.035 300.225C178.035 299.479 178.329 298.879 178.916 298.426C179.515 297.974 180.28 297.747 181.21 297.747C182.152 297.747 182.923 297.998 183.523 298.5C184.134 298.989 184.477 299.613 184.55 300.372H182.972C182.85 299.968 182.629 299.65 182.311 299.417C182.005 299.185 181.638 299.069 181.21 299.069C180.757 299.069 180.378 299.173 180.072 299.381C179.778 299.589 179.632 299.864 179.632 300.207C179.632 300.537 179.742 300.806 179.962 301.014C180.182 301.222 180.537 301.393 181.027 301.528L182.495 301.913C184.061 302.305 184.844 303.21 184.844 304.63C184.844 305.511 184.532 306.178 183.908 306.63C183.284 307.071 182.47 307.291 181.467 307.291ZM190.333 307.291C188.999 307.291 187.892 306.838 187.011 305.933C186.142 305.027 185.708 303.89 185.708 302.519C185.708 301.137 186.13 299.999 186.974 299.105C187.831 298.2 188.963 297.747 190.37 297.747C191.789 297.747 192.902 298.249 193.71 299.252C194.518 300.256 194.872 301.485 194.775 302.941H187.305C187.329 303.773 187.635 304.471 188.222 305.034C188.81 305.584 189.519 305.859 190.351 305.859C191.599 305.859 192.486 305.346 193.013 304.318H194.628C194.395 305.174 193.9 305.884 193.141 306.447C192.382 307.01 191.446 307.291 190.333 307.291ZM192.132 299.803C191.63 299.362 191.024 299.142 190.315 299.142C189.605 299.142 188.969 299.356 188.406 299.785C187.855 300.213 187.513 300.849 187.378 301.693H193.104C192.958 300.861 192.633 300.231 192.132 299.803ZM196.397 307.107V297.931H197.975V299.711C198.146 299.148 198.477 298.696 198.966 298.353C199.468 298.01 199.994 297.839 200.545 297.839C200.814 297.839 201.052 297.864 201.26 297.913V299.546C201.04 299.448 200.753 299.399 200.398 299.399C199.761 299.399 199.199 299.674 198.709 300.225C198.22 300.776 197.975 301.553 197.975 302.556V307.107H196.397ZM205.256 307.291C204.228 307.291 203.366 307.04 202.668 306.538C201.983 306.037 201.604 305.339 201.53 304.446H203.145C203.243 304.96 203.488 305.339 203.879 305.584C204.283 305.829 204.748 305.951 205.274 305.951C205.8 305.951 206.222 305.847 206.541 305.639C206.871 305.431 207.036 305.131 207.036 304.74C207.036 304.373 206.914 304.073 206.669 303.841C206.437 303.608 206.051 303.418 205.513 303.272L204.191 302.923C202.613 302.507 201.824 301.608 201.824 300.225C201.824 299.479 202.118 298.879 202.705 298.426C203.304 297.974 204.069 297.747 204.999 297.747C205.941 297.747 206.712 297.998 207.311 298.5C207.923 298.989 208.266 299.613 208.339 300.372H206.761C206.638 299.968 206.418 299.65 206.1 299.417C205.794 299.185 205.427 299.069 204.999 299.069C204.546 299.069 204.167 299.173 203.861 299.381C203.567 299.589 203.421 299.864 203.421 300.207C203.421 300.537 203.531 300.806 203.751 301.014C203.971 301.222 204.326 301.393 204.815 301.528L206.284 301.913C207.85 302.305 208.633 303.21 208.633 304.63C208.633 305.511 208.321 306.178 207.697 306.63C207.073 307.071 206.259 307.291 205.256 307.291Z" fill="#717171"/>
<path d="M146.209 352.457C146.171 352.602 146.191 352.755 146.265 352.884C146.34 353.013 146.463 353.107 146.607 353.146C146.678 353.165 146.753 353.17 146.826 353.16C146.899 353.151 146.97 353.127 147.033 353.09C147.163 353.015 147.257 352.892 147.295 352.748L147.779 350.939C147.801 350.867 147.809 350.791 147.801 350.716C147.793 350.641 147.77 350.568 147.733 350.502C147.697 350.436 147.647 350.378 147.588 350.332C147.528 350.286 147.46 350.252 147.387 350.232C147.314 350.213 147.238 350.208 147.164 350.218C147.089 350.229 147.017 350.254 146.953 350.293C146.888 350.332 146.832 350.383 146.787 350.445C146.743 350.506 146.711 350.575 146.694 350.648L146.209 352.457ZM151.644 351.524C151.749 351.629 151.808 351.772 151.808 351.921C151.808 352.07 151.749 352.213 151.644 352.318L149.771 354.191C149.665 354.29 149.524 354.344 149.378 354.342C149.233 354.339 149.094 354.28 148.991 354.177C148.888 354.074 148.829 353.935 148.826 353.79C148.824 353.644 148.878 353.503 148.977 353.397L150.85 351.524C150.955 351.419 151.098 351.36 151.247 351.36C151.396 351.36 151.538 351.419 151.644 351.524ZM149.936 356.417C149.936 356.268 149.995 356.125 150.1 356.02C150.206 355.915 150.349 355.855 150.498 355.855H152.37C152.519 355.855 152.662 355.915 152.768 356.02C152.873 356.125 152.932 356.268 152.932 356.417C152.932 356.566 152.873 356.709 152.768 356.815C152.662 356.92 152.519 356.979 152.37 356.979H150.498C150.349 356.979 150.206 356.92 150.1 356.815C149.995 356.709 149.936 356.566 149.936 356.417ZM143.755 368.589C143.142 368.589 142.539 368.431 142.005 368.13C141.471 367.828 141.024 367.394 140.708 366.869L139.202 367.622C138.815 367.816 138.377 367.882 137.951 367.813C137.524 367.743 137.13 367.542 136.824 367.236L135.933 366.344C135.627 366.039 135.425 365.645 135.356 365.218C135.286 364.791 135.353 364.354 135.546 363.967L140.906 353.247C141.052 352.955 141.265 352.702 141.528 352.509C141.791 352.316 142.097 352.188 142.419 352.135C142.741 352.083 143.071 352.108 143.382 352.208C143.692 352.309 143.974 352.481 144.205 352.712L150.457 358.963C150.687 359.194 150.86 359.477 150.96 359.787C151.06 360.098 151.085 360.428 151.033 360.75C150.981 361.072 150.853 361.377 150.659 361.64C150.466 361.903 150.213 362.117 149.921 362.263L147.054 363.696C147.273 364.236 147.355 364.821 147.295 365.401C147.234 365.98 147.032 366.536 146.706 367.019C146.381 367.503 145.941 367.898 145.427 368.172C144.912 368.446 144.338 368.589 143.756 368.589H143.755ZM146.044 364.201L141.717 366.364C142.044 366.865 142.543 367.228 143.12 367.384C143.697 367.541 144.311 367.479 144.846 367.212C145.38 366.945 145.798 366.49 146.019 365.935C146.24 365.379 146.249 364.763 146.044 364.201Z" fill="#717171"/>
<path d="M164.654 366.1L170.416 353.069H171.83L177.611 366.1H175.831L174.142 362.301H168.067L166.415 366.1H164.654ZM171.096 355.381L168.746 360.759H173.463L171.096 355.381ZM182.167 366.283C180.895 366.283 179.824 365.818 178.956 364.888C178.099 363.958 177.671 362.833 177.671 361.511C177.671 360.19 178.099 359.064 178.956 358.134C179.824 357.204 180.895 356.74 182.167 356.74C182.84 356.74 183.464 356.892 184.039 357.198C184.627 357.492 185.079 357.871 185.398 358.336V352.335H186.976V366.1H185.398V364.686C185.079 365.151 184.627 365.537 184.039 365.843C183.464 366.136 182.84 366.283 182.167 366.283ZM182.406 364.833C183.311 364.833 184.058 364.515 184.645 363.879C185.232 363.243 185.526 362.453 185.526 361.511C185.526 360.569 185.232 359.78 184.645 359.144C184.058 358.508 183.311 358.189 182.406 358.189C181.488 358.189 180.736 358.508 180.149 359.144C179.561 359.78 179.268 360.569 179.268 361.511C179.268 362.453 179.561 363.243 180.149 363.879C180.736 364.515 181.488 364.833 182.406 364.833ZM192.246 366.283C191.219 366.283 190.356 366.032 189.659 365.531C188.973 365.029 188.594 364.332 188.521 363.438H190.136C190.234 363.952 190.478 364.332 190.87 364.576C191.274 364.821 191.739 364.943 192.265 364.943C192.791 364.943 193.213 364.839 193.531 364.631C193.861 364.423 194.027 364.124 194.027 363.732C194.027 363.365 193.904 363.065 193.66 362.833C193.427 362.6 193.042 362.411 192.503 362.264L191.182 361.915C189.604 361.499 188.814 360.6 188.814 359.217C188.814 358.471 189.108 357.871 189.695 357.419C190.295 356.966 191.06 356.74 191.989 356.74C192.932 356.74 193.702 356.99 194.302 357.492C194.914 357.981 195.256 358.605 195.33 359.364H193.751C193.629 358.96 193.409 358.642 193.091 358.41C192.785 358.177 192.418 358.061 191.989 358.061C191.537 358.061 191.157 358.165 190.852 358.373C190.558 358.581 190.411 358.856 190.411 359.199C190.411 359.529 190.521 359.798 190.741 360.006C190.962 360.214 191.316 360.386 191.806 360.52L193.274 360.906C194.84 361.297 195.623 362.203 195.623 363.622C195.623 364.503 195.311 365.17 194.687 365.622C194.063 366.063 193.25 366.283 192.246 366.283ZM201.213 353.069H202.773L207.6 359.566L212.464 353.069H214.005V366.1H212.317V355.969L207.619 362.282L202.92 355.969V366.1H201.213V353.069ZM220.195 366.283C218.922 366.283 217.852 365.818 216.983 364.888C216.127 363.958 215.698 362.833 215.698 361.511C215.698 360.19 216.127 359.064 216.983 358.134C217.852 357.204 218.922 356.74 220.195 356.74C220.868 356.74 221.492 356.892 222.067 357.198C222.654 357.492 223.107 357.871 223.425 358.336V356.923H225.003V366.1H223.425V364.686C223.107 365.151 222.654 365.537 222.067 365.843C221.492 366.136 220.868 366.283 220.195 366.283ZM220.433 364.833C221.339 364.833 222.085 364.515 222.673 363.879C223.26 363.243 223.553 362.453 223.553 361.511C223.553 360.569 223.26 359.78 222.673 359.144C222.085 358.508 221.339 358.189 220.433 358.189C219.516 358.189 218.763 358.508 218.176 359.144C217.589 359.78 217.295 360.569 217.295 361.511C217.295 362.453 217.589 363.243 218.176 363.879C218.763 364.515 219.516 364.833 220.433 364.833ZM227.319 366.1V356.923H228.897V358.336C229.521 357.272 230.494 356.74 231.815 356.74C232.855 356.74 233.694 357.076 234.33 357.749C234.966 358.422 235.284 359.321 235.284 360.447V366.1H233.724V360.685C233.724 359.915 233.528 359.309 233.137 358.868C232.745 358.416 232.219 358.189 231.559 358.189C230.8 358.189 230.164 358.489 229.65 359.089C229.148 359.688 228.897 360.508 228.897 361.548V366.1H227.319ZM241.252 366.283C239.979 366.283 238.909 365.818 238.04 364.888C237.183 363.958 236.755 362.833 236.755 361.511C236.755 360.19 237.183 359.064 238.04 358.134C238.909 357.204 239.979 356.74 241.252 356.74C241.925 356.74 242.549 356.892 243.124 357.198C243.711 357.492 244.164 357.871 244.482 358.336V356.923H246.06V366.1H244.482V364.686C244.164 365.151 243.711 365.537 243.124 365.843C242.549 366.136 241.925 366.283 241.252 366.283ZM241.49 364.833C242.396 364.833 243.142 364.515 243.729 363.879C244.317 363.243 244.61 362.453 244.61 361.511C244.61 360.569 244.317 359.78 243.729 359.144C243.142 358.508 242.396 358.189 241.49 358.189C240.573 358.189 239.82 358.508 239.233 359.144C238.646 359.78 238.352 360.569 238.352 361.511C238.352 362.453 238.646 363.243 239.233 363.879C239.82 364.515 240.573 364.833 241.49 364.833ZM252.414 370.119C251.202 370.119 250.193 369.819 249.385 369.22C248.59 368.632 248.119 367.874 247.972 366.944H249.514C249.918 368.131 250.896 368.724 252.45 368.724C253.319 368.724 254.016 368.443 254.543 367.88C255.081 367.329 255.35 366.552 255.35 365.549V364.466C255.02 364.956 254.573 365.347 254.01 365.641C253.447 365.934 252.83 366.081 252.157 366.081C250.872 366.081 249.801 365.635 248.945 364.741C248.088 363.836 247.66 362.723 247.66 361.401C247.66 360.092 248.088 358.991 248.945 358.098C249.814 357.192 250.884 356.74 252.157 356.74C252.83 356.74 253.447 356.886 254.01 357.18C254.573 357.474 255.02 357.859 255.35 358.336V356.923H256.928V365.531C256.928 366.999 256.5 368.131 255.644 368.926C254.799 369.721 253.723 370.119 252.414 370.119ZM250.138 363.714C250.713 364.313 251.459 364.613 252.377 364.613C253.295 364.613 254.041 364.313 254.616 363.714C255.191 363.102 255.479 362.331 255.479 361.401C255.479 360.471 255.185 359.707 254.598 359.107C254.023 358.495 253.282 358.189 252.377 358.189C251.471 358.189 250.725 358.495 250.138 359.107C249.563 359.707 249.275 360.471 249.275 361.401C249.275 362.331 249.563 363.102 250.138 363.714ZM263.154 366.283C261.82 366.283 260.713 365.83 259.832 364.925C258.963 364.02 258.529 362.882 258.529 361.511C258.529 360.129 258.951 358.991 259.795 358.098C260.652 357.192 261.784 356.74 263.191 356.74C264.61 356.74 265.724 357.241 266.531 358.244C267.339 359.248 267.693 360.477 267.596 361.933H260.126C260.15 362.765 260.456 363.463 261.043 364.026C261.631 364.576 262.34 364.852 263.172 364.852C264.42 364.852 265.308 364.338 265.834 363.31H267.449C267.216 364.166 266.721 364.876 265.962 365.439C265.204 366.002 264.268 366.283 263.154 366.283ZM264.953 358.795C264.451 358.355 263.845 358.134 263.136 358.134C262.426 358.134 261.79 358.348 261.227 358.777C260.676 359.205 260.334 359.841 260.199 360.685H265.925C265.779 359.853 265.454 359.223 264.953 358.795ZM269.218 366.1V356.923H270.796V358.703C270.967 358.14 271.298 357.688 271.787 357.345C272.289 357.003 272.815 356.831 273.366 356.831C273.635 356.831 273.873 356.856 274.081 356.905V358.538C273.861 358.44 273.574 358.391 273.219 358.391C272.582 358.391 272.02 358.667 271.53 359.217C271.041 359.768 270.796 360.545 270.796 361.548V366.1H269.218Z" fill="#717171"/>
<path d="M150.793 409.362L152.271 410.841C152.68 411.25 152.68 411.911 152.271 412.32L147.762 416.84V426.981H136.226V411.25H147.416L149.303 409.362C149.723 408.953 150.384 408.943 150.793 409.362ZM144.857 418.256L150.489 412.635L148.999 411.145L143.378 416.777L142.633 419L144.857 418.256Z" fill="#717171"/>
<path d="M166.269 425.092V412.061H170.545C171.72 412.061 172.662 412.398 173.371 413.07C174.081 413.743 174.436 414.557 174.436 415.511C174.436 416.711 173.971 417.598 173.041 418.173C174.546 418.723 175.298 419.763 175.298 421.293C175.298 422.394 174.895 423.305 174.087 424.027C173.292 424.737 172.24 425.092 170.93 425.092H166.269ZM167.975 423.55H171.004C171.86 423.55 172.509 423.354 172.949 422.963C173.402 422.559 173.628 422.021 173.628 421.348C173.628 420.687 173.402 420.155 172.949 419.751C172.509 419.335 171.866 419.127 171.022 419.127H167.975V423.55ZM167.975 417.659H170.545C171.23 417.659 171.768 417.475 172.16 417.108C172.564 416.729 172.766 416.239 172.766 415.64C172.766 415.065 172.564 414.582 172.16 414.19C171.756 413.799 171.218 413.603 170.545 413.603H167.975V417.659ZM176.899 425.092V411.327H178.477V425.092H176.899ZM184.888 425.275C183.506 425.275 182.356 424.816 181.438 423.899C180.533 422.969 180.08 421.837 180.08 420.504C180.08 419.17 180.533 418.044 181.438 417.127C182.356 416.197 183.506 415.732 184.888 415.732C186.259 415.732 187.397 416.197 188.302 417.127C189.22 418.044 189.679 419.17 189.679 420.504C189.679 421.837 189.22 422.969 188.302 423.899C187.397 424.816 186.259 425.275 184.888 425.275ZM182.576 422.853C183.175 423.489 183.946 423.807 184.888 423.807C185.83 423.807 186.595 423.489 187.182 422.853C187.77 422.216 188.063 421.433 188.063 420.504C188.063 419.574 187.77 418.791 187.182 418.154C186.595 417.518 185.83 417.2 184.888 417.2C183.946 417.2 183.175 417.518 182.576 418.154C181.989 418.791 181.695 419.574 181.695 420.504C181.695 421.433 181.989 422.216 182.576 422.853ZM195.326 429.111C194.115 429.111 193.106 428.811 192.298 428.212C191.503 427.625 191.032 426.866 190.885 425.936H192.427C192.83 427.123 193.809 427.716 195.363 427.716C196.232 427.716 196.929 427.435 197.455 426.872C197.994 426.321 198.263 425.545 198.263 424.541V423.458C197.932 423.948 197.486 424.339 196.923 424.633C196.36 424.927 195.742 425.073 195.069 425.073C193.785 425.073 192.714 424.627 191.858 423.734C191.001 422.828 190.573 421.715 190.573 420.393C190.573 419.084 191.001 417.983 191.858 417.09C192.726 416.184 193.797 415.732 195.069 415.732C195.742 415.732 196.36 415.879 196.923 416.172C197.486 416.466 197.932 416.851 198.263 417.328V415.915H199.841V424.523C199.841 425.991 199.413 427.123 198.556 427.918C197.712 428.713 196.636 429.111 195.326 429.111ZM193.051 422.706C193.626 423.305 194.372 423.605 195.29 423.605C196.207 423.605 196.954 423.305 197.529 422.706C198.104 422.094 198.391 421.323 198.391 420.393C198.391 419.464 198.098 418.699 197.51 418.099C196.935 417.487 196.195 417.182 195.29 417.182C194.384 417.182 193.638 417.487 193.051 418.099C192.475 418.699 192.188 419.464 192.188 420.393C192.188 421.323 192.475 422.094 193.051 422.706ZM205.113 425.275C204.085 425.275 203.222 425.025 202.525 424.523C201.84 424.021 201.46 423.324 201.387 422.431H203.002C203.1 422.944 203.344 423.324 203.736 423.568C204.14 423.813 204.605 423.936 205.131 423.936C205.657 423.936 206.079 423.832 206.397 423.624C206.728 423.416 206.893 423.116 206.893 422.724C206.893 422.357 206.77 422.057 206.526 421.825C206.293 421.592 205.908 421.403 205.369 421.256L204.048 420.907C202.47 420.491 201.68 419.592 201.68 418.209C201.68 417.463 201.974 416.863 202.561 416.411C203.161 415.958 203.926 415.732 204.856 415.732C205.798 415.732 206.569 415.983 207.168 416.484C207.78 416.974 208.122 417.598 208.196 418.356H206.617C206.495 417.952 206.275 417.634 205.957 417.402C205.651 417.169 205.284 417.053 204.856 417.053C204.403 417.053 204.024 417.157 203.718 417.365C203.424 417.573 203.277 417.848 203.277 418.191C203.277 418.521 203.387 418.791 203.608 418.999C203.828 419.207 204.183 419.378 204.672 419.512L206.14 419.898C207.706 420.289 208.489 421.195 208.489 422.614C208.489 423.495 208.177 424.162 207.553 424.615C206.929 425.055 206.116 425.275 205.113 425.275Z" fill="#717171"/>
<path d="M138.407 471.718H140.619V473.948C140.244 473.731 139.808 473.645 139.379 473.701C138.95 473.758 138.552 473.954 138.246 474.26C137.94 474.566 137.743 474.965 137.686 475.394C137.63 475.823 137.717 476.259 137.933 476.634H135.703V474.422C135.703 473.704 135.988 473.017 136.495 472.51C137.002 472.003 137.69 471.718 138.407 471.718ZM135.703 479.829V477.617H139.924L138.305 479.235C138.212 479.328 138.161 479.453 138.161 479.583C138.161 479.714 138.212 479.839 138.305 479.931C138.397 480.024 138.522 480.076 138.653 480.076C138.783 480.076 138.908 480.024 139.001 479.931L140.619 478.312V482.533H138.407C137.69 482.533 137.002 482.248 136.495 481.741C135.988 481.234 135.703 480.546 135.703 479.829ZM141.602 482.533H146.764C147.481 482.533 148.169 482.248 148.676 481.741C149.183 481.234 149.468 480.546 149.468 479.829V477.617H142.297L143.917 479.235C144.009 479.328 144.061 479.453 144.061 479.583C144.061 479.714 144.009 479.839 143.917 479.931C143.824 480.024 143.699 480.076 143.569 480.076C143.438 480.076 143.313 480.024 143.221 479.931L141.602 478.312V482.533ZM144.288 476.634H149.468V474.422C149.468 473.704 149.183 473.017 148.676 472.51C148.169 472.003 147.481 471.718 146.764 471.718H141.602V473.948C141.977 473.731 142.413 473.645 142.842 473.701C143.271 473.758 143.67 473.954 143.976 474.26C144.282 474.566 144.478 474.965 144.535 475.394C144.592 475.823 144.505 476.259 144.288 476.634ZM141.602 476.634V475.651C141.602 475.456 141.66 475.266 141.768 475.104C141.876 474.943 142.03 474.817 142.209 474.742C142.389 474.668 142.587 474.648 142.777 474.686C142.968 474.724 143.143 474.818 143.281 474.955C143.418 475.093 143.512 475.268 143.55 475.459C143.588 475.649 143.568 475.847 143.494 476.027C143.419 476.206 143.293 476.36 143.132 476.468C142.97 476.576 142.78 476.634 142.586 476.634H141.602ZM139.636 476.634H140.619V475.651C140.619 475.456 140.561 475.266 140.453 475.104C140.345 474.943 140.192 474.817 140.012 474.742C139.833 474.668 139.635 474.648 139.444 474.686C139.253 474.724 139.078 474.818 138.941 474.955C138.803 475.093 138.71 475.268 138.672 475.459C138.634 475.649 138.653 475.847 138.728 476.027C138.802 476.206 138.928 476.36 139.09 476.468C139.251 476.576 139.441 476.634 139.636 476.634ZM140.373 484.499C139.533 484.499 138.782 484.116 138.286 483.514L138.407 483.516H146.764C147.742 483.516 148.68 483.128 149.371 482.436C150.063 481.745 150.451 480.807 150.451 479.829V474.422C150.451 474.381 150.451 474.341 150.449 474.301C150.758 474.554 151.006 474.873 151.176 475.234C151.347 475.595 151.435 475.989 151.434 476.388V479.829C151.434 481.068 150.942 482.256 150.067 483.132C149.191 484.007 148.003 484.499 146.764 484.499H140.373Z" fill="#717171"/>
<path d="M172.142 484.304C170.221 484.304 168.612 483.662 167.315 482.377C166.03 481.08 165.388 479.477 165.388 477.569C165.388 475.66 166.03 474.063 167.315 472.778C168.612 471.482 170.221 470.833 172.142 470.833C173.61 470.833 174.907 471.231 176.033 472.026C177.158 472.809 177.917 473.77 178.308 474.907H176.418C176.051 474.173 175.488 473.58 174.729 473.127C173.971 472.674 173.108 472.448 172.142 472.448C170.698 472.448 169.493 472.944 168.526 473.935C167.572 474.914 167.095 476.125 167.095 477.569C167.095 479.012 167.572 480.23 168.526 481.221C169.493 482.2 170.698 482.689 172.142 482.689C173.475 482.689 174.57 482.273 175.427 481.441C176.296 480.609 176.791 479.539 176.913 478.229H172.068V476.633H178.675C178.847 478.933 178.296 480.787 177.024 482.194C175.751 483.601 174.124 484.304 172.142 484.304ZM181.865 472.136C181.657 472.344 181.394 472.448 181.076 472.448C180.758 472.448 180.489 472.344 180.269 472.136C180.048 471.916 179.938 471.647 179.938 471.329C179.938 471.023 180.048 470.76 180.269 470.539C180.489 470.319 180.758 470.209 181.076 470.209C181.394 470.209 181.657 470.319 181.865 470.539C182.073 470.76 182.177 471.023 182.177 471.329C182.177 471.647 182.073 471.916 181.865 472.136ZM180.269 484.084V474.907H181.847V484.084H180.269ZM184.954 484.084V476.357H183.009V474.907H184.954V473.017C184.954 472.099 185.211 471.402 185.725 470.925C186.239 470.448 186.918 470.209 187.762 470.209C188.264 470.209 188.741 470.289 189.194 470.448V471.842C188.912 471.72 188.533 471.659 188.056 471.659C187.53 471.659 187.144 471.775 186.9 472.008C186.655 472.24 186.533 472.644 186.533 473.219V474.907H188.882V476.357H186.533V484.084H184.954ZM194.388 484.176C193.544 484.176 192.858 483.937 192.332 483.46C191.818 482.983 191.561 482.285 191.561 481.368V476.357H189.91V474.907H191.561V472.356H193.14V474.907H195.801V476.357H193.14V481.166C193.14 481.741 193.262 482.145 193.507 482.377C193.752 482.61 194.137 482.726 194.663 482.726C195.14 482.726 195.52 482.665 195.801 482.542V483.956C195.324 484.102 194.853 484.176 194.388 484.176ZM201.116 484.268C199.734 484.268 198.59 483.809 197.684 482.891C196.779 481.961 196.326 480.829 196.326 479.496C196.326 478.162 196.779 477.036 197.684 476.119C198.59 475.189 199.734 474.724 201.116 474.724C202.254 474.724 203.239 475.042 204.071 475.678C204.903 476.302 205.46 477.122 205.741 478.138H204.053C203.833 477.538 203.466 477.061 202.952 476.706C202.438 476.351 201.826 476.174 201.116 476.174C200.174 476.174 199.403 476.492 198.804 477.128C198.217 477.764 197.923 478.554 197.923 479.496C197.923 480.438 198.217 481.227 198.804 481.863C199.403 482.499 200.174 482.818 201.116 482.818C201.826 482.818 202.438 482.64 202.952 482.285C203.466 481.931 203.833 481.453 204.053 480.854H205.741C205.472 481.869 204.922 482.695 204.09 483.332C203.258 483.956 202.266 484.268 201.116 484.268ZM210.957 484.268C209.684 484.268 208.614 483.803 207.745 482.873C206.889 481.943 206.46 480.817 206.46 479.496C206.46 478.174 206.889 477.049 207.745 476.119C208.614 475.189 209.684 474.724 210.957 474.724C211.63 474.724 212.254 474.877 212.829 475.183C213.416 475.476 213.869 475.856 214.187 476.321V474.907H215.765V484.084H214.187V482.671C213.869 483.136 213.416 483.521 212.829 483.827C212.254 484.121 211.63 484.268 210.957 484.268ZM211.195 482.818C212.101 482.818 212.847 482.499 213.435 481.863C214.022 481.227 214.315 480.438 214.315 479.496C214.315 478.554 214.022 477.764 213.435 477.128C212.847 476.492 212.101 476.174 211.195 476.174C210.278 476.174 209.525 476.492 208.938 477.128C208.351 477.764 208.057 478.554 208.057 479.496C208.057 480.438 208.351 481.227 208.938 481.863C209.525 482.499 210.278 482.818 211.195 482.818ZM218.081 484.084V474.907H219.659V476.688C219.831 476.125 220.161 475.672 220.65 475.33C221.152 474.987 221.678 474.816 222.229 474.816C222.498 474.816 222.737 474.84 222.945 474.889V476.522C222.724 476.425 222.437 476.376 222.082 476.376C221.446 476.376 220.883 476.651 220.393 477.202C219.904 477.752 219.659 478.529 219.659 479.532V484.084H218.081ZM227.623 484.268C226.35 484.268 225.28 483.803 224.411 482.873C223.554 481.943 223.126 480.817 223.126 479.496C223.126 478.174 223.554 477.049 224.411 476.119C225.28 475.189 226.35 474.724 227.623 474.724C228.296 474.724 228.92 474.877 229.495 475.183C230.082 475.476 230.535 475.856 230.853 476.321V470.319H232.431V484.084H230.853V482.671C230.535 483.136 230.082 483.521 229.495 483.827C228.92 484.121 228.296 484.268 227.623 484.268ZM227.861 482.818C228.767 482.818 229.513 482.499 230.1 481.863C230.688 481.227 230.981 480.438 230.981 479.496C230.981 478.554 230.688 477.764 230.1 477.128C229.513 476.492 228.767 476.174 227.861 476.174C226.944 476.174 226.191 476.492 225.604 477.128C225.016 477.764 224.723 478.554 224.723 479.496C224.723 480.438 225.016 481.227 225.604 481.863C226.191 482.499 226.944 482.818 227.861 482.818ZM237.702 484.268C236.674 484.268 235.811 484.017 235.114 483.515C234.429 483.013 234.049 482.316 233.976 481.423H235.591C235.689 481.937 235.934 482.316 236.325 482.561C236.729 482.805 237.194 482.928 237.72 482.928C238.246 482.928 238.668 482.824 238.986 482.616C239.317 482.408 239.482 482.108 239.482 481.716C239.482 481.349 239.359 481.05 239.115 480.817C238.882 480.585 238.497 480.395 237.959 480.248L236.637 479.899C235.059 479.483 234.27 478.584 234.27 477.202C234.27 476.455 234.563 475.856 235.151 475.403C235.75 474.95 236.515 474.724 237.445 474.724C238.387 474.724 239.158 474.975 239.757 475.476C240.369 475.966 240.712 476.59 240.785 477.348H239.207C239.084 476.945 238.864 476.626 238.546 476.394C238.24 476.162 237.873 476.045 237.445 476.045C236.992 476.045 236.613 476.149 236.307 476.357C236.013 476.565 235.866 476.841 235.866 477.183C235.866 477.514 235.976 477.783 236.197 477.991C236.417 478.199 236.772 478.37 237.261 478.505L238.729 478.89C240.296 479.282 241.079 480.187 241.079 481.606C241.079 482.487 240.767 483.154 240.143 483.607C239.519 484.047 238.705 484.268 237.702 484.268Z" fill="#717171"/>
<path d="M310.058 480.555L304.814 475.311L306.038 474.088L310.058 478.108L314.078 474.088L315.301 475.311L310.058 480.555Z" fill="#717171"/>
<rect x="289.064" y="527.487" width="29.1094" height="19.4875" rx="2.62188" fill="#538D60"/>
<path d="M303.372 539.962V541.731H297.027V541.115C297.027 540.862 297.053 540.617 297.106 540.381C297.158 540.145 297.219 539.94 297.289 539.765C297.368 539.582 297.482 539.394 297.63 539.201C297.779 539.009 297.905 538.852 298.01 538.729C298.115 538.607 298.272 538.458 298.482 538.284C298.701 538.109 298.867 537.982 298.98 537.904C299.094 537.816 299.273 537.689 299.518 537.523C299.763 537.349 299.933 537.226 300.029 537.156C301.008 536.475 301.497 535.837 301.497 535.242C301.497 534.893 301.388 534.604 301.17 534.377C300.951 534.15 300.65 534.036 300.265 534.036C299.854 534.036 299.513 534.163 299.243 534.416C298.98 534.661 298.854 534.971 298.862 535.347H297.053C297.053 534.438 297.359 533.7 297.971 533.132C298.591 532.555 299.369 532.266 300.304 532.266C301.135 532.266 301.838 532.52 302.415 533.027C303.001 533.534 303.293 534.237 303.293 535.137C303.293 535.88 303.132 536.492 302.808 536.973C302.494 537.445 302 537.925 301.327 538.415C301.266 538.458 301.108 538.568 300.855 538.743C300.602 538.909 300.409 539.04 300.278 539.136C300.147 539.232 299.999 539.359 299.832 539.516C299.675 539.673 299.57 539.822 299.518 539.962H303.372ZM307.492 541.876C306.469 541.876 305.634 541.53 304.988 540.84C304.341 540.15 304.018 539.267 304.018 538.192V535.937C304.018 534.871 304.341 533.993 304.988 533.302C305.634 532.612 306.469 532.266 307.492 532.266C308.505 532.266 309.336 532.612 309.982 533.302C310.629 533.993 310.952 534.871 310.952 535.937V538.192C310.952 539.267 310.629 540.15 309.982 540.84C309.336 541.53 308.505 541.876 307.492 541.876ZM306.272 539.595C306.578 539.935 306.985 540.106 307.492 540.106C307.998 540.106 308.4 539.935 308.698 539.595C309.003 539.254 309.156 538.786 309.156 538.192V535.937C309.156 535.343 309.003 534.88 308.698 534.548C308.4 534.207 307.998 534.036 307.492 534.036C306.985 534.036 306.578 534.207 306.272 534.548C305.966 534.88 305.814 535.343 305.814 535.937V538.192C305.814 538.786 305.966 539.254 306.272 539.595Z" fill="white"/>
<mask id="mask0_1_75052" style="mask-type:luminance" maskUnits="userSpaceOnUse" x="134" y="527" width="19" height="19">
<path d="M150.123 528.711H137.014C136.666 528.711 136.333 528.849 136.087 529.095C135.841 529.341 135.703 529.674 135.703 530.022V543.131C135.703 543.479 135.841 543.812 136.087 544.058C136.333 544.304 136.666 544.442 137.014 544.442H150.123C150.471 544.442 150.805 544.304 151.05 544.058C151.296 543.812 151.434 543.479 151.434 543.131V530.022C151.434 529.674 151.296 529.341 151.05 529.095C150.805 528.849 150.471 528.711 150.123 528.711Z" fill="white" stroke="white" stroke-width="1.74792" stroke-linecap="round" stroke-linejoin="round"/>
<path d="M142.26 539.635L144.444 541.383L147.94 537.013M139.201 532.644H147.94M139.201 536.139H142.697" stroke="black" stroke-width="1.74792" stroke-linecap="round" stroke-linejoin="round"/>
</mask>
<g mask="url(#mask0_1_75052)">
<path d="M133.081 526.089H154.056V547.064H133.081V526.089Z" fill="#717171"/>
</g>
<path d="M168.912 543.076V531.661H164.855V530.045H174.638V531.661H170.582V543.076H168.912ZM174.139 543.076V533.9H175.717V535.68C175.889 535.117 176.219 534.664 176.708 534.322C177.21 533.979 177.736 533.808 178.287 533.808C178.556 533.808 178.795 533.832 179.003 533.881V535.515C178.782 535.417 178.495 535.368 178.14 535.368C177.504 535.368 176.941 535.643 176.451 536.194C175.962 536.744 175.717 537.521 175.717 538.525V543.076H174.139ZM183.681 543.26C182.408 543.26 181.338 542.795 180.469 541.865C179.612 540.935 179.184 539.809 179.184 538.488C179.184 537.166 179.612 536.041 180.469 535.111C181.338 534.181 182.408 533.716 183.681 533.716C184.354 533.716 184.978 533.869 185.553 534.175C186.14 534.469 186.593 534.848 186.911 535.313V533.9H188.489V543.076H186.911V541.663C186.593 542.128 186.14 542.513 185.553 542.819C184.978 543.113 184.354 543.26 183.681 543.26ZM183.919 541.81C184.825 541.81 185.571 541.492 186.158 540.855C186.746 540.219 187.039 539.43 187.039 538.488C187.039 537.546 186.746 536.757 186.158 536.12C185.571 535.484 184.825 535.166 183.919 535.166C183.002 535.166 182.249 535.484 181.662 536.12C181.074 536.757 180.781 537.546 180.781 538.488C180.781 539.43 181.074 540.219 181.662 540.855C182.249 541.492 183.002 541.81 183.919 541.81ZM190.805 543.076V533.9H192.383V535.313C193.007 534.248 193.98 533.716 195.301 533.716C196.341 533.716 197.179 534.053 197.816 534.725C198.452 535.398 198.77 536.298 198.77 537.423V543.076H197.21V537.662C197.21 536.891 197.014 536.286 196.623 535.845C196.231 535.392 195.705 535.166 195.044 535.166C194.286 535.166 193.649 535.466 193.136 536.065C192.634 536.665 192.383 537.485 192.383 538.525V543.076H190.805ZM203.912 543.26C202.884 543.26 202.021 543.009 201.324 542.507C200.639 542.006 200.259 541.308 200.186 540.415H201.801C201.899 540.929 202.144 541.308 202.535 541.553C202.939 541.798 203.404 541.92 203.93 541.92C204.456 541.92 204.878 541.816 205.196 541.608C205.527 541.4 205.692 541.1 205.692 540.709C205.692 540.342 205.57 540.042 205.325 539.809C205.092 539.577 204.707 539.387 204.169 539.24L202.847 538.892C201.269 538.476 200.48 537.576 200.48 536.194C200.48 535.447 200.773 534.848 201.361 534.395C201.96 533.942 202.725 533.716 203.655 533.716C204.597 533.716 205.368 533.967 205.967 534.469C206.579 534.958 206.922 535.582 206.995 536.341H205.417C205.294 535.937 205.074 535.619 204.756 535.386C204.45 535.154 204.083 535.038 203.655 535.038C203.202 535.038 202.823 535.142 202.517 535.35C202.223 535.558 202.076 535.833 202.076 536.175C202.076 536.506 202.186 536.775 202.407 536.983C202.627 537.191 202.982 537.362 203.471 537.497L204.939 537.882C206.506 538.274 207.289 539.179 207.289 540.598C207.289 541.479 206.977 542.146 206.353 542.599C205.729 543.039 204.915 543.26 203.912 543.26ZM212.649 543.26C211.377 543.26 210.306 542.795 209.437 541.865C208.581 540.935 208.153 539.809 208.153 538.488C208.153 537.166 208.581 536.041 209.437 535.111C210.306 534.181 211.377 533.716 212.649 533.716C213.322 533.716 213.946 533.869 214.521 534.175C215.109 534.469 215.561 534.848 215.879 535.313V533.9H217.458V543.076H215.879V541.663C215.561 542.128 215.109 542.513 214.521 542.819C213.946 543.113 213.322 543.26 212.649 543.26ZM212.888 541.81C213.793 541.81 214.54 541.492 215.127 540.855C215.714 540.219 216.008 539.43 216.008 538.488C216.008 537.546 215.714 536.757 215.127 536.12C214.54 535.484 213.793 535.166 212.888 535.166C211.97 535.166 211.218 535.484 210.63 536.12C210.043 536.757 209.749 537.546 209.749 538.488C209.749 539.43 210.043 540.219 210.63 540.855C211.218 541.492 211.97 541.81 212.888 541.81ZM223.848 543.26C222.465 543.26 221.321 542.801 220.416 541.883C219.51 540.953 219.058 539.822 219.058 538.488C219.058 537.154 219.51 536.029 220.416 535.111C221.321 534.181 222.465 533.716 223.848 533.716C224.986 533.716 225.971 534.034 226.803 534.67C227.635 535.294 228.191 536.114 228.473 537.13H226.784C226.564 536.53 226.197 536.053 225.683 535.698C225.169 535.343 224.557 535.166 223.848 535.166C222.906 535.166 222.135 535.484 221.535 536.12C220.948 536.757 220.654 537.546 220.654 538.488C220.654 539.43 220.948 540.219 221.535 540.855C222.135 541.492 222.906 541.81 223.848 541.81C224.557 541.81 225.169 541.632 225.683 541.278C226.197 540.923 226.564 540.446 226.784 539.846H228.473C228.204 540.862 227.653 541.687 226.821 542.324C225.989 542.948 224.998 543.26 223.848 543.26ZM233.378 543.168C232.534 543.168 231.855 542.929 231.341 542.452C230.827 541.975 230.57 541.278 230.57 540.36V535.35H228.625V533.9H230.57V531.349H232.149V533.9H234.792V535.35H232.149V540.158C232.149 540.733 232.271 541.137 232.516 541.369C232.761 541.602 233.146 541.718 233.672 541.718C234.137 541.718 234.51 541.657 234.792 541.535V542.948C234.351 543.095 233.88 543.168 233.378 543.168ZM237.749 531.128C237.541 531.336 237.278 531.44 236.96 531.44C236.642 531.44 236.373 531.336 236.152 531.128C235.932 530.908 235.822 530.639 235.822 530.321C235.822 530.015 235.932 529.752 236.152 529.532C236.373 529.311 236.642 529.201 236.96 529.201C237.278 529.201 237.541 529.311 237.749 529.532C237.957 529.752 238.061 530.015 238.061 530.321C238.061 530.639 237.957 530.908 237.749 531.128ZM236.152 543.076V533.9H237.731V543.076H236.152ZM244.142 543.26C242.759 543.26 241.609 542.801 240.691 541.883C239.786 540.953 239.333 539.822 239.333 538.488C239.333 537.154 239.786 536.029 240.691 535.111C241.609 534.181 242.759 533.716 244.142 533.716C245.512 533.716 246.65 534.181 247.555 535.111C248.473 536.029 248.932 537.154 248.932 538.488C248.932 539.822 248.473 540.953 247.555 541.883C246.65 542.801 245.512 543.26 244.142 543.26ZM241.829 540.837C242.429 541.473 243.2 541.791 244.142 541.791C245.084 541.791 245.849 541.473 246.436 540.837C247.023 540.201 247.317 539.418 247.317 538.488C247.317 537.558 247.023 536.775 246.436 536.139C245.849 535.502 245.084 535.184 244.142 535.184C243.2 535.184 242.429 535.502 241.829 536.139C241.242 536.775 240.948 537.558 240.948 538.488C240.948 539.418 241.242 540.201 241.829 540.837ZM250.542 543.076V533.9H252.12V535.313C252.744 534.248 253.717 533.716 255.039 533.716C256.079 533.716 256.917 534.053 257.553 534.725C258.189 535.398 258.507 536.298 258.507 537.423V543.076H256.947V537.662C256.947 536.891 256.751 536.286 256.36 535.845C255.968 535.392 255.442 535.166 254.782 535.166C254.023 535.166 253.387 535.466 252.873 536.065C252.371 536.665 252.12 537.485 252.12 538.525V543.076H250.542ZM263.649 543.26C262.621 543.26 261.759 543.009 261.061 542.507C260.376 542.006 259.997 541.308 259.923 540.415H261.538C261.636 540.929 261.881 541.308 262.272 541.553C262.676 541.798 263.141 541.92 263.667 541.92C264.193 541.92 264.616 541.816 264.934 541.608C265.264 541.4 265.429 541.1 265.429 540.709C265.429 540.342 265.307 540.042 265.062 539.809C264.83 539.577 264.444 539.387 263.906 539.24L262.584 538.892C261.006 538.476 260.217 537.576 260.217 536.194C260.217 535.447 260.511 534.848 261.098 534.395C261.697 533.942 262.462 533.716 263.392 533.716C264.334 533.716 265.105 533.967 265.704 534.469C266.316 534.958 266.659 535.582 266.732 536.341H265.154C265.032 535.937 264.811 535.619 264.493 535.386C264.187 535.154 263.82 535.038 263.392 535.038C262.939 535.038 262.56 535.142 262.254 535.35C261.96 535.558 261.814 535.833 261.814 536.175C261.814 536.506 261.924 536.775 262.144 536.983C262.364 537.191 262.719 537.362 263.208 537.497L264.677 537.882C266.243 538.274 267.026 539.179 267.026 540.598C267.026 541.479 266.714 542.146 266.09 542.599C265.466 543.039 264.652 543.26 263.649 543.26Z" fill="#717171"/>
<g clip-path="url(#clip2_1_75052)">
<path d="M150.42 76.0353V98.5715H146.861V79.5799C146.861 77.6215 148.455 76.0332 150.42 76.0332V76.0353Z" fill="#222222"/>
<path d="M136.001 86.2363H136.673V98.5725H133.114V89.1126C133.114 87.5243 134.407 86.2384 135.998 86.2384L136.001 86.2363Z" fill="#222222"/>
<path d="M133.114 88.9617C133.114 87.0033 134.708 85.415 136.673 85.415H145.493V88.9617H133.114Z" fill="#222222"/>
<path d="M133.114 82.5047C133.114 80.5463 134.708 78.958 136.673 78.958H145.493V82.5047H133.114Z" fill="#222222"/>
<path d="M151.57 85.415H155.129V98.5718H151.57V85.415Z" fill="#222222"/>
<path d="M151.57 83.8562H155.129V80.3096C153.164 80.3096 151.57 81.8979 151.57 83.8562Z" fill="#222222"/>
<path d="M159.835 80.3096V82.6508C161.009 81.09 163.216 79.9902 165.956 79.9902C170.937 79.9902 174.888 83.5369 174.888 89.4586C174.888 94.9552 171.009 98.891 165.956 98.891C163.216 98.891 160.903 97.7215 159.835 96.1607V105.432H156.276V83.8541C156.276 81.8958 157.87 80.3075 159.835 80.3075V80.3096ZM165.529 95.5939C169.088 95.5939 171.293 92.8276 171.293 89.4586C171.293 86.0896 169.086 83.2874 165.529 83.2874C161.972 83.2874 159.765 86.0896 159.765 89.4586C159.765 92.8276 161.972 95.5939 165.529 95.5939Z" fill="#222222"/>
<path d="M175.791 89.4586C175.791 84.0677 179.492 79.9902 185.044 79.9902C190.596 79.9902 193.798 84.2095 193.798 89.0335V90.7001H179.386C179.849 94.1748 182.198 95.6996 185.08 95.6996C187.962 95.6996 189.885 93.9274 190.454 92.3306L193.193 93.7857C192.41 95.8075 189.919 98.8931 185.08 98.8931C179.458 98.8931 175.793 94.7797 175.793 89.4607L175.791 89.4586ZM190.097 87.7202C190.061 85.4509 188.14 83.1097 185.008 83.1097C182.304 83.1097 180.097 84.7065 179.492 87.7202H190.097Z" fill="#222222"/>
<path d="M204.054 89.2809L198.218 80.3096H202.276L206.582 87.0116L210.852 80.3096H214.979L209.107 89.2111L215.085 98.5737H211.028L206.579 91.5523L202.131 98.5737H198.003L204.052 89.283L204.054 89.2809Z" fill="#222222"/>
<path d="M206.544 87.7197H187.505V90.6933H206.544V87.7197Z" fill="#222222"/>
<path d="M192.389 80.3096H195.948L201.816 89.2809L195.948 98.5716H192.389L198.238 89.2217L192.389 80.3096Z" fill="#222222"/>
</g>
<path fill-rule="evenodd" clip-rule="evenodd" d="M316.684 97.3064V84.1971C316.684 83.5017 316.96 82.8348 317.452 82.3431C317.943 81.8514 318.61 81.5752 319.305 81.5752H332.415C333.11 81.5752 333.777 81.8514 334.269 82.3431C334.76 82.8348 335.037 83.5017 335.037 84.1971V97.3064C335.037 98.0018 334.76 98.6687 334.269 99.1604C333.777 99.6521 333.11 99.9283 332.415 99.9283H319.305C318.61 99.9283 317.943 99.6521 317.452 99.1604C316.96 98.6687 316.684 98.0018 316.684 97.3064Z" stroke="black" stroke-width="1.31094" stroke-linecap="round" stroke-linejoin="round"/>
<path fill-rule="evenodd" clip-rule="evenodd" d="M319.305 97.3064V84.1971C319.305 83.5017 319.582 82.8348 320.073 82.3431C320.565 81.8514 321.232 81.5752 321.927 81.5752H319.305C317.995 81.5752 316.684 82.7485 316.684 84.1971V97.3064C316.684 98.755 317.995 99.9283 319.305 99.9283H321.927C321.232 99.9283 320.565 99.6521 320.073 99.1604C319.582 98.6687 319.305 98.0018 319.305 97.3064Z" fill="black" stroke="black" stroke-width="1.31094" stroke-linecap="round" stroke-linejoin="round"/>
<path d="M325.86 94.685L321.927 90.7521M321.927 90.7521L325.86 86.8193M321.927 90.7521H332.415" stroke="black" stroke-width="1.31094" stroke-linecap="round" stroke-linejoin="round"/>
<line x1="116.039" y1="133.059" x2="345.453" y2="133.059" stroke="#F7F7F7" stroke-width="1.31094"/>
</g>
<g clip-path="url(#clip3_1_75052)">
<rect width="1432.85" height="981.892" transform="translate(344.141 52.4375)" fill="#F7F7F7"/>
<g clip-path="url(#clip4_1_75052)">
<rect width="1432.85" height="79.9672" transform="translate(344.141 52.4375)" fill="white"/>
<path d="M371.651 100.211L378.027 85.3187H381.048L387.424 100.211H383.942L382.621 97.0647H376.454L375.133 100.211H371.651ZM379.538 89.7025L377.65 94.1701H381.404L379.538 89.7025ZM388.976 100.211V85.3187H394.052C396.15 85.3187 397.94 86.0458 399.422 87.5001C400.904 88.9544 401.645 90.7093 401.645 92.7648C401.645 94.8204 400.904 96.5753 399.422 98.0295C397.94 99.4838 396.15 100.211 394.052 100.211H388.976ZM392.311 97.1486H394.052C395.283 97.1486 396.29 96.7291 397.073 95.8901C397.87 95.0371 398.268 93.9953 398.268 92.7648C398.268 91.5343 397.87 90.4995 397.073 89.6605C396.29 88.8075 395.283 88.381 394.052 88.381H392.311V97.1486ZM403.97 85.3187H407.011L411.647 91.737L416.324 85.3187H419.366V100.211H416.01V91.0449L411.668 97.0437L407.305 91.0239V100.211H403.97V85.3187ZM422.508 100.211V85.3187H425.843V100.211H422.508ZM442.446 100.211H439.573L432.315 91.0029V100.211H428.98V85.3187H431.854L439.09 94.5267V85.3187H442.446V100.211ZM450.563 100.463C448.83 100.463 447.431 99.9592 446.368 98.9524C445.306 97.9456 444.746 96.771 444.69 95.4286H448.025C448.137 96.0439 448.417 96.5263 448.864 96.8759C449.326 97.2115 449.892 97.3793 450.563 97.3793C451.137 97.3793 451.598 97.2605 451.948 97.0227C452.311 96.785 452.493 96.4634 452.493 96.0579C452.493 95.3447 451.843 94.8064 450.542 94.4428L449.095 94.0653C447.851 93.7297 446.872 93.1843 446.159 92.4292C445.446 91.6741 445.082 90.7302 445.068 89.5976C445.068 88.2132 445.529 87.1155 446.452 86.3045C447.389 85.4795 448.634 85.067 450.186 85.067C451.752 85.067 453.025 85.5424 454.003 86.4933C454.982 87.4302 455.5 88.5069 455.555 89.7234H452.241C452.088 89.1781 451.822 88.7796 451.444 88.5279C451.067 88.2762 450.647 88.1503 450.186 88.1503C449.669 88.1503 449.249 88.2552 448.927 88.4649C448.606 88.6747 448.438 88.9753 448.424 89.3669C448.41 89.7584 448.55 90.08 448.843 90.3317C449.151 90.5834 449.613 90.7932 450.228 90.961L451.927 91.4014C453.171 91.737 454.136 92.2894 454.821 93.0585C455.521 93.8275 455.87 94.7924 455.87 95.953C455.87 97.2395 455.381 98.3162 454.402 99.1832C453.423 100.036 452.144 100.463 450.563 100.463Z" fill="#717171"/>
<line x1="344.796" y1="52.4375" x2="344.796" y2="132.405" stroke="#F7F7F7" stroke-width="1.31094"/>
</g>
<g clip-path="url(#clip5_1_75052)">
<rect x="371.672" y="350.02" width="1377.8" height="627.939" rx="5.24375" fill="white"/>
<rect width="1377.8" height="52.4375" transform="translate(371.672 521.752)" fill="white"/>
<rect x="400.186" y="538.468" width="19.0086" height="19.0086" rx="4.26055" fill="white"/>
<rect x="400.186" y="538.468" width="19.0086" height="19.0086" rx="4.26055" stroke="#717171" stroke-width="1.96641"/>
<path d="M432.034 553.472V542.302H435.464C437.121 542.302 438.51 542.837 439.632 543.907C440.755 544.977 441.316 546.303 441.316 547.887C441.316 549.471 440.755 550.797 439.632 551.867C438.51 552.937 437.121 553.472 435.464 553.472H432.034ZM433.875 551.757H435.464C436.638 551.757 437.593 551.39 438.327 550.656C439.071 549.922 439.444 548.999 439.444 547.887C439.444 546.775 439.071 545.853 438.327 545.118C437.593 544.384 436.638 544.017 435.464 544.017H433.875V551.757ZM443.677 548.123L442.67 547.399L443.944 545.653L441.883 544.961L442.245 543.75L444.337 544.426V542.302H445.596V544.426L447.688 543.75L448.066 544.961L445.989 545.638L447.279 547.399L446.272 548.123L444.982 546.377L443.677 548.123ZM450.487 548.123L449.481 547.399L450.755 545.653L448.694 544.961L449.056 543.75L451.148 544.426V542.302H452.407V544.426L454.499 543.75L454.876 544.961L452.8 545.638L454.09 547.399L453.083 548.123L451.793 546.377L450.487 548.123ZM457.298 548.123L456.291 547.399L457.565 545.653L455.505 544.961L455.866 543.75L457.959 544.426V542.302H459.217V544.426L461.31 543.75L461.687 544.961L459.611 545.638L460.9 547.399L459.894 548.123L458.604 546.377L457.298 548.123ZM464.109 548.123L463.102 547.399L464.376 545.653L462.315 544.961L462.677 543.75L464.769 544.426V542.302H466.028V544.426L468.12 543.75L468.498 544.961L466.421 545.638L467.711 547.399L466.704 548.123L465.414 546.377L464.109 548.123ZM470.92 548.123L469.913 547.399L471.187 545.653L469.126 544.961L469.488 543.75L471.58 544.426V542.302H472.839V544.426L474.931 543.75L475.309 544.961L473.232 545.638L474.522 547.399L473.515 548.123L472.225 546.377L470.92 548.123ZM477.73 548.123L476.723 547.399L477.998 545.653L475.937 544.961L476.299 543.75L478.391 544.426V542.302H479.649V544.426L481.742 543.75L482.119 544.961L480.043 545.638L481.333 547.399L480.326 548.123L479.036 546.377L477.73 548.123ZM484.541 548.123L483.534 547.399L484.808 545.653L482.748 544.961L483.109 543.75L485.202 544.426V542.302H486.46V544.426L488.552 543.75L488.93 544.961L486.853 545.638L488.143 547.399L487.137 548.123L485.847 546.377L484.541 548.123ZM491.352 548.123L490.345 547.399L491.619 545.653L489.558 544.961L489.92 543.75L492.012 544.426V542.302H493.271V544.426L495.363 543.75L495.741 544.961L493.664 545.638L494.954 547.399L493.947 548.123L492.657 546.377L491.352 548.123ZM498.162 548.123L497.156 547.399L498.43 545.653L496.369 544.961L496.731 543.75L498.823 544.426V542.302H500.082V544.426L502.174 543.75L502.551 544.961L500.475 545.638L501.765 547.399L500.758 548.123L499.468 546.377L498.162 548.123ZM504.973 548.123L503.966 547.399L505.241 545.653L503.18 544.961L503.542 543.75L505.634 544.426V542.302H506.892V544.426L508.985 543.75L509.362 544.961L507.286 545.638L508.576 547.399L507.569 548.123L506.279 546.377L504.973 548.123ZM511.784 548.123L510.777 547.399L512.051 545.653L509.991 544.961L510.352 543.75L512.445 544.426V542.302H513.703V544.426L515.795 543.75L516.173 544.961L514.096 545.638L515.386 547.399L514.38 548.123L513.09 546.377L511.784 548.123Z" fill="#717171"/>
<g clip-path="url(#clip6_1_75052)">
<rect width="1377.8" height="162.556" transform="translate(371.672 350.02)" fill="white"/>
<path d="M399.266 406.902L404.143 395.733H405.747L410.624 406.902H408.705L407.431 403.976H402.428L401.17 406.902H399.266ZM404.929 398.219L403.136 402.34H406.723L404.929 398.219ZM411.407 406.902V395.733H414.837C416.494 395.733 417.883 396.268 419.006 397.338C420.128 398.407 420.689 399.734 420.689 401.318C420.689 402.901 420.128 404.228 419.006 405.298C417.883 406.367 416.494 406.902 414.837 406.902H411.407ZM413.248 405.188H414.837C416.011 405.188 416.966 404.821 417.7 404.086C418.445 403.352 418.817 402.429 418.817 401.318C418.817 400.206 418.445 399.283 417.7 398.549C416.966 397.815 416.011 397.448 414.837 397.448H413.248V405.188ZM422.059 395.733H423.742L427.643 401.019L431.561 395.733H433.244V406.902H431.387V398.895L427.659 403.961L423.899 398.879V406.902H422.059V395.733ZM435.322 406.902V395.733H437.162V406.902H435.322ZM448.982 406.902H447.377L441.085 398.864V406.902H439.244V395.733H440.849L447.126 403.756V395.733H448.982V406.902ZM454.383 407.091C453.187 407.091 452.217 406.761 451.472 406.1C450.738 405.429 450.35 404.627 450.308 403.693H452.149C452.212 404.228 452.458 404.642 452.888 404.936C453.329 405.23 453.822 405.376 454.367 405.376C454.912 405.376 455.358 405.251 455.704 404.999C456.061 404.737 456.239 404.391 456.239 403.961C456.239 403.205 455.725 402.66 454.697 402.325L453.329 401.868C451.504 401.292 450.591 400.217 450.591 398.643C450.591 397.689 450.916 396.934 451.567 396.378C452.227 395.822 453.087 395.544 454.147 395.544C455.248 395.544 456.124 395.864 456.774 396.504C457.424 397.133 457.786 397.878 457.859 398.738H456.019C455.903 398.245 455.667 397.878 455.311 397.637C454.954 397.385 454.556 397.259 454.115 397.259C453.633 397.259 453.234 397.38 452.92 397.621C452.605 397.852 452.442 398.161 452.432 398.549C452.432 398.948 452.553 399.273 452.794 399.524C453.035 399.766 453.418 399.97 453.942 400.138L455.326 400.578C457.172 401.176 458.095 402.283 458.095 403.898C458.095 404.842 457.749 405.612 457.057 406.21C456.375 406.797 455.484 407.091 454.383 407.091Z" fill="#717171"/>
<line x1="371.672" y1="458.173" x2="1749.47" y2="458.173" stroke="#E7E9EB" stroke-width="1.31094"/>
<line x1="371.672" y1="505.366" x2="1749.47" y2="505.366" stroke="#E7E9EB" stroke-width="1.31094"/>
<rect x="400.186" y="472.921" width="19.0086" height="19.0086" rx="4.26055" fill="white"/>
<rect x="400.186" y="472.921" width="19.0086" height="19.0086" rx="4.26055" stroke="#717171" stroke-width="1.96641"/>
<path d="M432.034 487.925V476.756H438.673V478.518H433.875V481.396H437.65V483.143H433.875V487.925H432.034ZM441.856 488.082C440.954 488.082 440.241 487.783 439.716 487.185C439.192 486.577 438.93 485.77 438.93 484.763V480.059H440.66V484.48C440.66 485.109 440.796 485.607 441.069 485.974C441.342 486.331 441.73 486.509 442.233 486.509C442.821 486.509 443.287 486.289 443.633 485.848C443.979 485.397 444.152 484.758 444.152 483.929V480.059H445.883V487.925H444.152V486.855C443.691 487.673 442.925 488.082 441.856 488.082ZM447.556 487.925V476.126H449.286V487.925H447.556ZM450.956 487.925V476.126H452.686V487.925H450.956ZM454.356 487.925V480.059H456.087V481.129C456.58 480.311 457.377 479.902 458.478 479.902C459.39 479.902 460.119 480.201 460.664 480.799C461.21 481.396 461.483 482.193 461.483 483.19V487.925H459.752V483.473C459.752 482.844 459.605 482.356 459.312 482.01C459.018 481.653 458.619 481.475 458.116 481.475C457.518 481.475 457.031 481.7 456.653 482.151C456.275 482.602 456.087 483.237 456.087 484.055V487.925H454.356ZM466.266 488.082C465.196 488.082 464.294 487.684 463.56 486.887C462.837 486.089 462.475 485.125 462.475 483.992C462.475 482.859 462.837 481.894 463.56 481.097C464.294 480.3 465.196 479.902 466.266 479.902C466.801 479.902 467.294 480.022 467.745 480.264C468.196 480.494 468.542 480.778 468.783 481.113V480.059H470.514V487.925H468.783V486.871C468.542 487.206 468.196 487.495 467.745 487.736C467.294 487.967 466.801 488.082 466.266 488.082ZM464.898 485.785C465.338 486.268 465.899 486.509 466.581 486.509C467.262 486.509 467.824 486.268 468.264 485.785C468.704 485.303 468.925 484.705 468.925 483.992C468.925 483.279 468.704 482.681 468.264 482.199C467.824 481.716 467.262 481.475 466.581 481.475C465.899 481.475 465.338 481.716 464.898 482.199C464.457 482.681 464.237 483.279 464.237 483.992C464.237 484.705 464.457 485.303 464.898 485.785ZM482.223 487.925V483.504C482.223 482.865 482.103 482.366 481.861 482.01C481.631 481.653 481.285 481.475 480.823 481.475C480.267 481.475 479.822 481.69 479.486 482.12C479.15 482.55 478.972 483.153 478.951 483.929V487.925H477.221V483.504C477.221 482.865 477.1 482.366 476.859 482.01C476.628 481.653 476.282 481.475 475.821 481.475C475.244 481.475 474.782 481.7 474.436 482.151C474.101 482.602 473.933 483.237 473.933 484.055V487.925H472.202V480.059H473.933V481.129C474.415 480.311 475.16 479.902 476.167 479.902C477.352 479.902 478.165 480.421 478.605 481.459C478.825 480.966 479.161 480.584 479.612 480.311C480.073 480.038 480.577 479.902 481.122 479.902C482.003 479.902 482.695 480.201 483.199 480.799C483.702 481.396 483.954 482.204 483.954 483.221V487.925H482.223ZM488.988 488.082C487.814 488.082 486.849 487.699 486.094 486.934C485.338 486.158 484.961 485.177 484.961 483.992C484.961 482.807 485.333 481.832 486.078 481.066C486.822 480.29 487.798 479.902 489.004 479.902C490.22 479.902 491.201 480.327 491.946 481.176C492.69 482.015 493.021 483.095 492.937 484.417H486.676C486.697 485.025 486.927 485.534 487.368 485.943C487.808 486.352 488.369 486.556 489.051 486.556C490.016 486.556 490.677 486.189 491.033 485.455H492.842C492.601 486.221 492.14 486.85 491.458 487.343C490.776 487.836 489.953 488.082 488.988 488.082ZM488.957 481.349C488.39 481.349 487.903 481.512 487.494 481.837C487.095 482.151 486.838 482.602 486.723 483.19H491.08C490.955 482.581 490.698 482.125 490.31 481.821C489.922 481.506 489.471 481.349 488.957 481.349Z" fill="#717171"/>
</g>
</g>
</g>
<g filter="url(#filter0_d_1_75052)">
<rect x="37.3828" y="140.643" width="595.847" height="215.556" rx="24" fill="white"/>
<path d="M78.927 200.718V188.142H74.5949V185.787H85.7407V188.142H81.3875V200.718H78.927ZM93.154 198.594C94.6121 198.594 95.8459 198.075 96.8553 197.038C97.8647 196 98.3694 194.738 98.3694 193.252C98.3694 191.766 97.8647 190.504 96.8553 189.467C95.8459 188.429 94.6121 187.911 93.154 187.911C91.6819 187.911 90.4412 188.429 89.4317 189.467C88.4223 190.504 87.9176 191.766 87.9176 193.252C87.9176 194.738 88.4223 196 89.4317 197.038C90.4412 198.075 91.6819 198.594 93.154 198.594ZM98.6218 198.72C97.1217 200.22 95.2991 200.97 93.154 200.97C91.009 200.97 89.1864 200.227 87.6863 198.741C86.1861 197.241 85.4361 195.411 85.4361 193.252C85.4361 191.093 86.1861 189.271 87.6863 187.784C89.1864 186.284 91.009 185.534 93.154 185.534C95.2991 185.534 97.1217 186.284 98.6218 187.784C100.122 189.285 100.872 191.107 100.872 193.252C100.872 195.397 100.122 197.22 98.6218 198.72ZM104.899 200.718V188.142H100.567V185.787H111.713V188.142H107.36V200.718H104.899ZM109.891 200.718L116.41 185.787H118.555L125.074 200.718H122.509L120.805 196.806H114.118L112.435 200.718H109.891ZM117.461 189.109L115.064 194.619H119.859L117.461 189.109ZM126.121 200.718V185.787H128.582V198.362H135.417V200.718H126.121ZM137.78 200.718L144.299 185.787H146.444L152.963 200.718H150.398L148.694 196.806H142.007L140.324 200.718H137.78ZM145.351 189.109L142.953 194.619H147.748L145.351 189.109ZM154.011 200.718V185.787H158.595C160.81 185.787 162.668 186.502 164.168 187.932C165.668 189.362 166.418 191.135 166.418 193.252C166.418 195.369 165.668 197.143 164.168 198.573C162.668 200.003 160.81 200.718 158.595 200.718H154.011ZM156.471 198.426H158.595C160.165 198.426 161.441 197.935 162.423 196.953C163.418 195.972 163.916 194.738 163.916 193.252C163.916 191.766 163.418 190.532 162.423 189.551C161.441 188.57 160.165 188.079 158.595 188.079H156.471V198.426ZM168.25 185.787H170.5L175.715 192.853L180.952 185.787H183.202V200.718H180.72V190.014L175.736 196.785L170.71 189.993V200.718H168.25V185.787ZM185.98 200.718V185.787H188.44V200.718H185.98ZM204.241 200.718H202.096L193.684 189.972V200.718H191.224V185.787H193.369L201.76 196.512V185.787H204.241V200.718ZM211.461 200.97C209.863 200.97 208.566 200.529 207.57 199.645C206.589 198.748 206.07 197.675 206.014 196.428H208.475C208.559 197.143 208.888 197.696 209.463 198.089C210.052 198.482 210.711 198.678 211.44 198.678C212.169 198.678 212.765 198.51 213.227 198.173C213.704 197.823 213.942 197.36 213.942 196.785C213.942 195.776 213.255 195.047 211.881 194.598L210.052 193.988C207.612 193.217 206.393 191.78 206.393 189.677C206.393 188.401 206.827 187.392 207.697 186.649C208.58 185.906 209.729 185.534 211.145 185.534C212.618 185.534 213.788 185.962 214.657 186.817C215.527 187.658 216.01 188.654 216.108 189.803H213.648C213.494 189.144 213.178 188.654 212.702 188.331C212.225 187.995 211.692 187.826 211.103 187.826C210.458 187.826 209.926 187.988 209.505 188.31C209.084 188.619 208.867 189.032 208.853 189.551C208.853 190.084 209.014 190.518 209.337 190.855C209.659 191.177 210.171 191.451 210.872 191.675L212.723 192.264C215.19 193.063 216.424 194.542 216.424 196.701C216.424 197.963 215.961 198.993 215.036 199.792C214.125 200.578 212.933 200.97 211.461 200.97Z" fill="#717171"/>
<mask id="mask1_1_75052" style="mask-type:alpha" maskUnits="userSpaceOnUse" x="554" y="172" width="43" height="43">
<rect x="554.673" y="172.188" width="42.0598" height="42.0598" fill="#D9D9D9"/>
</mask>
<g mask="url(#mask1_1_75052)">
<path d="M575.699 194.968C573.975 194.968 572.522 194.376 571.339 193.193C570.156 192.01 569.565 190.557 569.565 188.834C569.565 187.111 570.156 185.658 571.339 184.475C572.522 183.292 573.975 182.7 575.699 182.7C577.422 182.7 578.875 183.292 580.058 184.475C581.241 185.658 581.832 187.111 581.832 188.834C581.832 190.557 581.241 192.01 580.058 193.193C578.875 194.376 577.422 194.968 575.699 194.968ZM575.699 191.463C576.458 191.463 577.086 191.215 577.583 190.718C578.079 190.221 578.327 189.594 578.327 188.834C578.327 188.075 578.079 187.447 577.583 186.95C577.086 186.454 576.458 186.205 575.699 186.205C574.939 186.205 574.311 186.454 573.815 186.95C573.318 187.447 573.07 188.075 573.07 188.834C573.07 189.594 573.318 190.221 573.815 190.718C574.311 191.215 574.939 191.463 575.699 191.463ZM575.699 210.74C571.639 209.718 568.287 207.389 565.644 203.752C563 200.116 561.679 196.078 561.679 191.638V180.948L575.699 175.69L589.719 180.948V191.638C589.719 196.078 588.397 200.116 585.754 203.752C583.11 207.389 579.759 209.718 575.699 210.74ZM575.699 179.414L565.184 183.358V191.638C565.184 193.215 565.403 194.749 565.841 196.238C566.279 197.728 566.878 199.13 567.637 200.444C568.864 199.831 570.149 199.349 571.493 198.999C572.836 198.648 574.238 198.473 575.699 198.473C577.159 198.473 578.561 198.648 579.905 198.999C581.248 199.349 582.533 199.831 583.76 200.444C584.52 199.13 585.118 197.728 585.556 196.238C585.995 194.749 586.214 193.215 586.214 191.638V183.358L575.699 179.414ZM575.699 201.978C574.647 201.978 573.625 202.095 572.632 202.328C571.639 202.562 570.689 202.883 569.784 203.292C570.631 204.168 571.551 204.928 572.544 205.57C573.537 206.213 574.589 206.71 575.699 207.06C576.809 206.71 577.86 206.213 578.853 205.57C579.846 204.928 580.766 204.168 581.613 203.292C580.708 202.883 579.759 202.562 578.765 202.328C577.772 202.095 576.75 201.978 575.699 201.978Z" fill="#717171"/>
</g>
<path d="M80.5884 312.596V288.411H74.2794L78.4854 282.733H86.3506V312.596H80.5884ZM102.095 313.058C98.8142 313.058 96.1364 311.951 94.0614 309.736C91.9865 307.52 90.949 304.688 90.949 301.24V294.005C90.949 290.584 91.9865 287.766 94.0614 285.551C96.1364 283.336 98.8142 282.229 102.095 282.229C105.347 282.229 108.011 283.336 110.086 285.551C112.161 287.766 113.199 290.584 113.199 294.005V301.24C113.199 304.688 112.161 307.52 110.086 309.736C108.011 311.951 105.347 313.058 102.095 313.058ZM98.1833 305.74C99.1647 306.834 100.469 307.38 102.095 307.38C103.721 307.38 105.011 306.834 105.964 305.74C106.946 304.646 107.436 303.146 107.436 301.24V294.005C107.436 292.099 106.946 290.612 105.964 289.547C105.011 288.453 103.721 287.907 102.095 287.907C100.469 287.907 99.1647 288.453 98.1833 289.547C97.2019 290.612 96.7112 292.099 96.7112 294.005V301.24C96.7112 303.146 97.2019 304.646 98.1833 305.74Z" fill="black"/>
</g>
<g filter="url(#filter1_d_1_75052)">
<rect x="661.273" y="140.643" width="595.847" height="215.556" rx="7.00996" fill="white"/>
</g>
<circle cx="130.03" cy="25.7882" r="7.43659" fill="#FF5C52"/>
<circle cx="154.056" cy="25.7882" r="7.43659" fill="#FDD254"/>
<circle cx="178.082" cy="25.7882" r="7.43659" fill="#5FD066"/>
<defs>
<filter id="filter0_d_1_75052" x="-19.6172" y="98.6426" width="709.847" height="329.557" filterUnits="userSpaceOnUse" color-interpolation-filters="sRGB">
<feFlood flood-opacity="0" result="BackgroundImageFix"/>
<feColorMatrix in="SourceAlpha" type="matrix" values="0 0 0 0 0 0 0 0 0 0 0 0 0 0 0 0 0 0 127 0" result="hardAlpha"/>
<feOffset dy="15"/>
<feGaussianBlur stdDeviation="28.5"/>
<feComposite in2="hardAlpha" operator="out"/>
<feColorMatrix type="matrix" values="0 0 0 0 0.772836 0 0 0 0 0.843254 0 0 0 0 0.891667 0 0 0 0.19 0"/>
<feBlend mode="normal" in2="BackgroundImageFix" result="effect1_dropShadow_1_75052"/>
<feBlend mode="normal" in="SourceGraphic" in2="effect1_dropShadow_1_75052" result="shape"/>
</filter>
<filter id="filter1_d_1_75052" x="582.617" y="128.844" width="753.159" height="372.869" filterUnits="userSpaceOnUse" color-interpolation-filters="sRGB">
<feFlood flood-opacity="0" result="BackgroundImageFix"/>
<feColorMatrix in="SourceAlpha" type="matrix" values="0 0 0 0 0 0 0 0 0 0 0 0 0 0 0 0 0 0 127 0" result="hardAlpha"/>
<feOffset dy="66.8578"/>
<feGaussianBlur stdDeviation="39.3281"/>
<feComposite in2="hardAlpha" operator="out"/>
<feColorMatrix type="matrix" values="0 0 0 0 0.772836 0 0 0 0 0.843254 0 0 0 0 0.891667 0 0 0 0.15 0"/>
<feBlend mode="normal" in2="BackgroundImageFix" result="effect1_dropShadow_1_75052"/>
<feBlend mode="normal" in="SourceGraphic" in2="effect1_dropShadow_1_75052" result="shape"/>
</filter>
<clipPath id="clip0_1_75052">
<rect width="245.145" height="981.892" fill="white" transform="translate(99 52.4375)"/>
</clipPath>
<clipPath id="clip1_1_75052">
<rect width="20.975" height="20.975" fill="white" transform="translate(133.081 231.128)"/>
</clipPath>
<clipPath id="clip2_1_75052">
<rect width="82" height="29.4359" fill="white" transform="translate(133.086 76.0332)"/>
</clipPath>
<clipPath id="clip3_1_75052">
<rect width="1432.85" height="981.892" fill="white" transform="translate(344.141 52.4375)"/>
</clipPath>
<clipPath id="clip4_1_75052">
<rect width="1432.85" height="79.9672" fill="white" transform="translate(344.141 52.4375)"/>
</clipPath>
<clipPath id="clip5_1_75052">
<rect x="371.672" y="350.02" width="1377.8" height="627.939" rx="5.24375" fill="white"/>
</clipPath>
<clipPath id="clip6_1_75052">
<rect width="1377.8" height="162.556" fill="white" transform="translate(371.672 350.02)"/>
</clipPath>
</defs>
</svg>
