<svg width="20" height="20" viewBox="0 0 20 20" fill="none" xmlns="http://www.w3.org/2000/svg">
<path d="M15 13.3334H11.6667V15H15V16.6667L17.5 14.1667L15 11.6667V13.3334ZM9.16667 3.33337C7.33333 3.33337 5.83333 4.83337 5.83333 6.66671C5.83333 8.50004 7.33333 10 9.16667 10C11 10 12.5 8.50004 12.5 6.66671C12.5 4.83337 11 3.33337 9.16667 3.33337ZM9.16667 11.6667C5.5 11.6667 2.5 13.1667 2.5 15V16.6667H10.4167C10.1667 16 10 15.3334 10 14.5834C10 13.5834 10.25 12.6667 10.75 11.75C10.25 11.75 9.75 11.6667 9.16667 11.6667Z" fill="#717171"/>
</svg>
