<svg width="20" height="20" viewBox="0 0 20 20" fill="none" xmlns="http://www.w3.org/2000/svg">
<path d="M12.5002 11.6666C10.2502 11.6666 5.8335 12.7499 5.8335 14.9999V16.6666H19.1668V14.9999C19.1668 12.7499 14.7502 11.6666 12.5002 11.6666ZM12.5002 9.99992C13.3842 9.99992 14.2321 9.64873 14.8572 9.02361C15.4823 8.39849 15.8335 7.55064 15.8335 6.66659C15.8335 5.78253 15.4823 4.93468 14.8572 4.30956C14.2321 3.68444 13.3842 3.33325 12.5002 3.33325C11.6161 3.33325 10.7683 3.68444 10.1431 4.30956C9.51802 4.93468 9.16683 5.78253 9.16683 6.66659C9.16683 7.55064 9.51802 8.39849 10.1431 9.02361C10.7683 9.64873 11.6161 9.99992 12.5002 9.99992ZM4.16683 12.4999L3.66683 12.0833C2.00016 10.4999 0.833496 9.49992 0.833496 8.24992C0.833496 7.24992 1.66683 6.41658 2.66683 6.41658C3.25016 6.41658 3.8335 6.66659 4.16683 7.08325C4.50016 6.66659 5.0835 6.41658 5.66683 6.41658C6.66683 6.41658 7.50016 7.16658 7.50016 8.24992C7.50016 9.49992 6.3335 10.4999 4.66683 12.0833L4.16683 12.4999Z" fill="#717171"/>
</svg>
