<svg width="16" height="16" viewBox="0 0 16 16" fill="none" xmlns="http://www.w3.org/2000/svg">
<path d="M10.0181 2.55204C9.98873 2.66191 10.0042 2.77897 10.0611 2.87745C10.118 2.97593 10.2117 3.04778 10.3216 3.07718C10.376 3.09174 10.4327 3.09544 10.4885 3.08807C10.5444 3.0807 10.5982 3.0624 10.647 3.03422C10.7455 2.97732 10.8173 2.88363 10.8467 2.77375L11.2158 1.39375C11.2327 1.33872 11.2382 1.28087 11.2322 1.22364C11.2262 1.16642 11.2087 1.11098 11.1809 1.06066C11.153 1.01033 11.1152 0.966131 11.0699 0.930703C11.0245 0.895275 10.9725 0.869341 10.9169 0.854448C10.8614 0.839554 10.8033 0.836006 10.7464 0.844015C10.6894 0.852024 10.6346 0.871426 10.5853 0.901065C10.5359 0.930703 10.4931 0.96997 10.4593 1.01652C10.4255 1.06308 10.4014 1.11597 10.3884 1.17204L10.0181 2.55204ZM14.1638 1.84004C14.2441 1.92039 14.2892 2.02932 14.2892 2.14289C14.2892 2.25646 14.2441 2.36539 14.1638 2.44575L12.7353 3.87432C12.654 3.95002 12.5466 3.99124 12.4355 3.98928C12.3245 3.98732 12.2186 3.94234 12.1401 3.86382C12.0615 3.7853 12.0166 3.67936 12.0146 3.56833C12.0126 3.4573 12.0539 3.34985 12.1296 3.26861L13.5581 1.84004C13.6385 1.75978 13.7474 1.7147 13.861 1.7147C13.9746 1.7147 14.0835 1.75978 14.1638 1.84004ZM12.861 5.57261C12.861 5.45894 12.9061 5.34993 12.9865 5.26956C13.0669 5.18919 13.1759 5.14404 13.2896 5.14404H14.7181C14.8318 5.14404 14.9408 5.18919 15.0212 5.26956C15.1015 5.34993 15.1467 5.45894 15.1467 5.57261C15.1467 5.68627 15.1015 5.79528 15.0212 5.87565C14.9408 5.95603 14.8318 6.00118 14.7181 6.00118H13.2896C13.1759 6.00118 13.0669 5.95603 12.9865 5.87565C12.9061 5.79528 12.861 5.68627 12.861 5.57261ZM8.14613 14.8572C7.67843 14.8574 7.2186 14.7368 6.8113 14.5069C6.40399 14.277 6.06304 13.9457 5.82156 13.5452L4.67298 14.12C4.37796 14.2674 4.04405 14.3183 3.71854 14.2653C3.39303 14.2124 3.09241 14.0584 2.85927 13.8252L2.17927 13.1452C1.94602 12.912 1.79203 12.6114 1.73911 12.2859C1.6862 11.9604 1.73703 11.6265 1.88441 11.3315L5.97298 3.15432C6.08438 2.93166 6.24709 2.73866 6.4477 2.59122C6.64832 2.44377 6.88109 2.34611 7.12685 2.30626C7.37261 2.26642 7.62432 2.28554 7.86124 2.36205C8.09817 2.43856 8.31352 2.57027 8.48956 2.74632L13.2581 7.51489C13.4342 7.69097 13.5658 7.90636 13.6423 8.14331C13.7188 8.38026 13.7378 8.63199 13.6979 8.87775C13.658 9.12351 13.5603 9.35628 13.4128 9.55687C13.2653 9.75745 13.0723 9.92012 12.8496 10.0315L10.6627 11.1246C10.8295 11.5366 10.8925 11.9833 10.8462 12.4254C10.7999 12.8675 10.6458 13.2914 10.3974 13.66C10.1489 14.0286 9.81376 14.3305 9.42132 14.5393C9.02889 14.748 8.5912 14.8572 8.1467 14.8572H8.14613ZM9.89241 11.5103L6.59184 13.16C6.84084 13.542 7.22164 13.819 7.6617 13.9383C8.10176 14.0576 8.57033 14.0108 8.97814 13.8069C9.38595 13.603 9.7045 13.2562 9.8731 12.8326C10.0417 12.409 10.0486 11.9387 9.89241 11.5103Z" fill="#717171"/>
</svg>
