<svg width="21" height="22" viewBox="0 0 21 22" fill="none" xmlns="http://www.w3.org/2000/svg">
<path fill-rule="evenodd" clip-rule="evenodd" d="M3.5 15.9609V5.96094C3.5 5.4305 3.71071 4.9218 4.08579 4.54672C4.46086 4.17165 4.96957 3.96094 5.5 3.96094H15.5C16.0304 3.96094 16.5391 4.17165 16.9142 4.54672C17.2893 4.9218 17.5 5.4305 17.5 5.96094V15.9609C17.5 16.4914 17.2893 17.0001 16.9142 17.3752C16.5391 17.7502 16.0304 17.9609 15.5 17.9609H5.5C4.96957 17.9609 4.46086 17.7502 4.08579 17.3752C3.71071 17.0001 3.5 16.4914 3.5 15.9609Z" stroke="black" stroke-linecap="round" stroke-linejoin="round"/>
<path fill-rule="evenodd" clip-rule="evenodd" d="M5.5 15.9609V5.96094C5.5 5.4305 5.71071 4.9218 6.08579 4.54672C6.46086 4.17165 6.96957 3.96094 7.5 3.96094H5.5C4.5 3.96094 3.5 4.85594 3.5 5.96094V15.9609C3.5 17.0659 4.5 17.9609 5.5 17.9609H7.5C6.96957 17.9609 6.46086 17.7502 6.08579 17.3752C5.71071 17.0001 5.5 16.4914 5.5 15.9609Z" fill="black" stroke="black" stroke-linecap="round" stroke-linejoin="round"/>
<path d="M10.5 13.9609L7.5 10.9609M7.5 10.9609L10.5 7.96094M7.5 10.9609H15.5" stroke="black" stroke-linecap="round" stroke-linejoin="round"/>
</svg>
