<svg width="16" height="16" viewBox="0 0 16 16" fill="none" xmlns="http://www.w3.org/2000/svg">
<path d="M11.3359 8.00065V2.00065C11.3359 1.82384 11.2657 1.65427 11.1407 1.52925C11.0157 1.40422 10.8461 1.33398 10.6693 1.33398H2.0026C1.82579 1.33398 1.65622 1.40422 1.5312 1.52925C1.40618 1.65427 1.33594 1.82384 1.33594 2.00065V11.334L4.0026 8.66732H10.6693C10.8461 8.66732 11.0157 8.59708 11.1407 8.47206C11.2657 8.34703 11.3359 8.17746 11.3359 8.00065ZM14.0026 4.00065H12.6693V10.0007H4.0026V11.334C4.0026 11.5108 4.07284 11.6804 4.19787 11.8054C4.32289 11.9304 4.49246 12.0007 4.66927 12.0007H12.0026L14.6693 14.6673V4.66732C14.6693 4.49051 14.599 4.32094 14.474 4.19591C14.349 4.07089 14.1794 4.00065 14.0026 4.00065Z" fill="#717171"/>
</svg>
