<svg width="16" height="16" viewBox="0 0 16 16" fill="none" xmlns="http://www.w3.org/2000/svg">
<path d="M4.0625 3.52539H5.75V5.22639C5.46404 5.06132 5.13161 4.99521 4.80425 5.03832C4.47689 5.08143 4.1729 5.23135 3.93943 5.46482C3.70595 5.6983 3.55604 6.00228 3.51293 6.32964C3.46982 6.657 3.53593 6.98943 3.701 7.27539H2V5.58789C2 5.04088 2.2173 4.51628 2.60409 4.12948C2.99089 3.74269 3.51549 3.52539 4.0625 3.52539V3.52539ZM2 9.71289V8.02539H5.21975L3.9845 9.25989C3.91408 9.33031 3.87453 9.42581 3.87453 9.52539C3.87453 9.62497 3.91408 9.72048 3.9845 9.79089C4.05491 9.86131 4.15042 9.90086 4.25 9.90086C4.34958 9.90086 4.44509 9.86131 4.5155 9.79089L5.75 8.55564V11.7754H4.0625C3.51549 11.7754 2.99089 11.5581 2.60409 11.1713C2.2173 10.7845 2 10.2599 2 9.71289V9.71289ZM6.5 11.7754H10.4375C10.9845 11.7754 11.5091 11.5581 11.8959 11.1713C12.2827 10.7845 12.5 10.2599 12.5 9.71289V8.02539H7.03025L8.2655 9.25989C8.33592 9.33031 8.37547 9.42581 8.37547 9.52539C8.37547 9.62497 8.33592 9.72048 8.2655 9.79089C8.19509 9.86131 8.09958 9.90086 8 9.90086C7.90042 9.90086 7.80491 9.86131 7.7345 9.79089L6.5 8.55564V11.7754ZM8.549 7.27539H12.5V5.58789C12.5 5.04088 12.2827 4.51628 11.8959 4.12948C11.5091 3.74269 10.9845 3.52539 10.4375 3.52539H6.5V5.22639C6.78596 5.06132 7.11839 4.99521 7.44575 5.03832C7.77311 5.08143 8.07709 5.23135 8.31057 5.46482C8.54404 5.6983 8.69396 6.00228 8.73707 6.32964C8.78018 6.657 8.71407 6.98943 8.549 7.27539ZM6.5 7.27539V6.52539C6.5 6.37705 6.54399 6.23205 6.6264 6.10871C6.70881 5.98538 6.82594 5.88925 6.96299 5.83248C7.10003 5.77572 7.25083 5.76086 7.39632 5.7898C7.5418 5.81874 7.67544 5.89017 7.78033 5.99506C7.88522 6.09995 7.95665 6.23359 7.98559 6.37907C8.01453 6.52456 7.99968 6.67536 7.94291 6.8124C7.88614 6.94945 7.79001 7.06658 7.66668 7.14899C7.54334 7.2314 7.39834 7.27539 7.25 7.27539H6.5ZM5 7.27539H5.75V6.52539C5.75 6.37705 5.70601 6.23205 5.6236 6.10871C5.54119 5.98538 5.42406 5.88925 5.28701 5.83248C5.14997 5.77572 4.99917 5.76086 4.85368 5.7898C4.7082 5.81874 4.57456 5.89017 4.46967 5.99506C4.36478 6.09995 4.29335 6.23359 4.26441 6.37907C4.23547 6.52456 4.25032 6.67536 4.30709 6.8124C4.36386 6.94945 4.45999 7.06658 4.58332 7.14899C4.70666 7.2314 4.85166 7.27539 5 7.27539V7.27539ZM5.5625 13.2754C4.92125 13.2754 4.34825 12.9829 3.97025 12.5239L4.0625 12.5254H10.4375C11.1834 12.5254 11.8988 12.2291 12.4262 11.7016C12.9537 11.1742 13.25 10.4588 13.25 9.71289V5.58789C13.25 5.55714 13.25 5.52639 13.2485 5.49564C13.4837 5.68893 13.6732 5.932 13.8031 6.20734C13.9331 6.48268 14.0003 6.78343 14 7.08789V9.71289C14 10.6577 13.6247 11.5639 12.9566 12.232C12.2885 12.9001 11.3823 13.2754 10.4375 13.2754H5.5625Z" fill="#717171"/>
</svg>
