<svg width="20" height="21" viewBox="0 0 20 21" fill="none" xmlns="http://www.w3.org/2000/svg">
<g clip-path="url(#clip0_4_144744)">
<path d="M14.9497 15.4497C13.5252 16.5355 11.7906 17.1371 9.99967 17.1664C4.16634 17.1664 0.833008 10.4997 0.833008 10.4997C1.86958 8.56794 3.30729 6.8802 5.04967 5.5497M8.24967 4.03303C8.82328 3.89876 9.41056 3.83164 9.99967 3.83303C15.833 3.83303 19.1663 10.4997 19.1663 10.4997C18.6605 11.446 18.0572 12.337 17.3663 13.158M11.7663 12.2664C11.5375 12.512 11.2615 12.709 10.9548 12.8456C10.6481 12.9823 10.3171 13.0557 9.98142 13.0617C9.64574 13.0676 9.31231 13.0058 9.00102 12.8801C8.68972 12.7544 8.40694 12.5672 8.16955 12.3298C7.93215 12.0924 7.745 11.8096 7.61927 11.4984C7.49353 11.1871 7.43178 10.8536 7.4377 10.518C7.44363 10.1823 7.5171 9.85123 7.65374 9.54457C7.79038 9.2379 7.98739 8.9619 8.23301 8.73303" stroke="black" stroke-width="2" stroke-linecap="round" stroke-linejoin="round"/>
<path d="M0.833008 1.33301L19.1663 19.6663" stroke="black" stroke-width="2" stroke-linecap="round" stroke-linejoin="round"/>
</g>
<defs>
<clipPath id="clip0_4_144744">
<rect width="20" height="20" fill="white" transform="translate(0 0.5)"/>
</clipPath>
</defs>
</svg>
