<svg width="20" height="20" viewBox="0 0 20 20" fill="none" xmlns="http://www.w3.org/2000/svg">
<g clip-path="url(#clip0_1_66578)">
<path d="M8.8585 11.75C10.1918 8.81671 13.6502 7.52504 16.5835 8.85837C19.5168 10.1917 20.8085 13.65 19.4752 16.5834C18.5335 18.6667 16.4585 20 14.1668 20C11.9168 20 9.8585 18.7 8.89183 16.6667H0.833496V15C0.883496 14.05 1.5335 13.275 2.7835 12.65C4.0335 12.025 5.60016 11.7 7.50016 11.6667C7.97516 11.6667 8.42516 11.7084 8.8585 11.75ZM7.50016 3.33337C8.4335 3.35837 9.21683 3.68337 9.84183 4.30837C10.4668 4.93337 10.7752 5.71671 10.7752 6.66671C10.7752 7.61671 10.4668 8.40004 9.84183 9.02504C9.21683 9.65004 8.4335 9.95837 7.50016 9.95837C6.56683 9.95837 5.7835 9.65004 5.1585 9.02504C4.5335 8.40004 4.22516 7.61671 4.22516 6.66671C4.22516 5.71671 4.5335 4.93337 5.1585 4.30837C5.7835 3.68337 6.56683 3.35837 7.50016 3.33337ZM14.1668 18.3334C15.2719 18.3334 16.3317 17.8944 17.1131 17.113C17.8945 16.3316 18.3335 15.2718 18.3335 14.1667C18.3335 13.0616 17.8945 12.0018 17.1131 11.2204C16.3317 10.439 15.2719 10 14.1668 10C13.0618 10 12.002 10.439 11.2206 11.2204C10.4391 12.0018 10.0002 13.0616 10.0002 14.1667C10.0002 15.2718 10.4391 16.3316 11.2206 17.113C12.002 17.8944 13.0618 18.3334 14.1668 18.3334ZM13.3335 11.6667H14.5835V14.0167L16.6168 15.1917L15.9918 16.275L13.3335 14.7417V11.6667Z" fill="#717171"/>
</g>
<defs>
<clipPath id="clip0_1_66578">
<rect width="20" height="20" fill="white"/>
</clipPath>
</defs>
</svg>
