<svg width="16" height="16" viewBox="0 0 16 16" fill="none" xmlns="http://www.w3.org/2000/svg">
<path d="M5.44828 8.5C5.44828 8.36739 5.51367 8.24021 5.63007 8.14645C5.74647 8.05268 5.90435 8 6.06897 8H9.37931C9.54393 8 9.7018 8.05268 9.8182 8.14645C9.93461 8.24021 10 8.36739 10 8.5C10 8.63261 9.93461 8.75978 9.8182 8.85355C9.7018 8.94732 9.54393 9 9.37931 9H6.06897C5.90435 9 5.74647 8.94732 5.63007 8.85355C5.51367 8.75978 5.44828 8.63261 5.44828 8.5ZM4.62069 10C4.45607 10 4.2982 10.0527 4.1818 10.1464C4.06539 10.2402 4 10.3674 4 10.5C4 10.6326 4.06539 10.7598 4.1818 10.8536C4.2982 10.9473 4.45607 11 4.62069 11H7.93103C8.09565 11 8.25353 10.9473 8.36993 10.8536C8.48633 10.7598 8.55172 10.6326 8.55172 10.5C8.55172 10.3674 8.48633 10.2402 8.36993 10.1464C8.25353 10.0527 8.09565 10 7.93103 10H4.62069Z" fill="#717171"/>
<path d="M12.375 1C13.8223 1 15 2.16164 15 3.62418C15 4.48316 14.7043 5.31503 14.3149 6.08916C13.9273 6.85805 13.4154 7.62693 12.9306 8.35295L12.921 8.36782C12.424 9.11397 11.955 9.819 11.6077 10.5074C11.2594 11.1976 11.0625 11.8142 11.0625 12.3758C11.0626 12.6025 11.1214 12.8253 11.2333 13.0225C11.3451 13.2197 11.5061 13.3845 11.7007 13.501C11.8952 13.6175 12.1166 13.6816 12.3433 13.687C12.5699 13.6925 12.7942 13.6392 12.9941 13.5323C13.194 13.4254 13.3629 13.2685 13.4841 13.0769C13.6054 12.8854 13.6749 12.6657 13.686 12.4393C13.697 12.2129 13.6492 11.9875 13.5472 11.7851C13.4452 11.5826 13.2925 11.41 13.1039 11.2842C12.9649 11.1851 12.8699 11.0358 12.8392 10.8679C12.8085 10.7 12.8444 10.5268 12.9394 10.385C13.0343 10.2431 13.1808 10.1439 13.3478 10.1083C13.5148 10.0727 13.689 10.1035 13.8336 10.1943C14.3017 10.5071 14.6568 10.9621 14.8464 11.4921C15.036 12.0222 15.0501 12.5991 14.8866 13.1378C14.7231 13.6764 14.3907 14.1482 13.9385 14.4836C13.4862 14.8189 12.9381 14.9999 12.375 15H3.62511C2.92892 15 2.26125 14.7235 1.76897 14.2314C1.27669 13.7393 1.00013 13.0718 1.00013 12.3758C1.00013 10.992 1.77975 9.63355 2.55499 8.4343C2.73786 8.15264 2.92074 7.8771 3.10011 7.60681C3.51398 6.98663 3.90773 6.39444 4.22622 5.81537H3.19636C2.69236 5.81537 1.988 5.69903 1.52775 5.13046C1.18106 4.70551 0.994365 4.17251 1.00013 3.62418C1.00013 2.9282 1.27669 2.26073 1.76897 1.7686C2.26125 1.27648 2.92892 1 3.62511 1H12.375ZM12.375 2.31209C12.0269 2.31209 11.6931 2.45033 11.447 2.69639C11.2008 2.94246 11.0625 3.27619 11.0625 3.62418C11.0625 4.04055 11.2577 4.3537 11.6462 4.61437C11.763 4.69266 11.8516 4.80642 11.8989 4.93886C11.9461 5.0713 11.9496 5.21543 11.9087 5.34998C11.8678 5.48453 11.7848 5.60239 11.6718 5.68618C11.5589 5.76997 11.4219 5.81526 11.2813 5.81537H5.69709C5.28847 6.69272 4.69872 7.57795 4.14573 8.40719C3.97773 8.65998 3.81235 8.90665 3.65748 9.14633C2.86386 10.3736 2.31262 11.4276 2.31262 12.3758C2.31262 12.7238 2.4509 13.0575 2.69704 13.3036C2.94318 13.5497 3.27701 13.6879 3.62511 13.6879H10.1009C9.87039 13.2891 9.74935 12.8364 9.75005 12.3758C9.75005 11.5195 10.0458 10.6893 10.436 9.91609C10.8219 9.15158 11.3312 8.38707 11.8142 7.66279L11.829 7.64005C12.326 6.89391 12.7941 6.18975 13.1424 5.49872C13.4906 4.80769 13.6875 4.18925 13.6875 3.62418C13.6875 2.89116 13.1021 2.31209 12.375 2.31209ZM3.62511 2.31209C3.27701 2.31209 2.94318 2.45033 2.69704 2.69639C2.4509 2.94246 2.31262 3.27619 2.31262 3.62418C2.31262 3.90497 2.40012 4.1219 2.54887 4.30472C2.63374 4.40968 2.83324 4.50328 3.19636 4.50328H9.91105C9.80266 4.22295 9.74804 3.92472 9.75005 3.62418C9.75005 3.14658 9.8778 2.69784 10.1009 2.31209H3.62511Z" fill="#717171"/>
</svg>
