<svg width="23" height="23" viewBox="0 0 23 23" fill="none" xmlns="http://www.w3.org/2000/svg">
<path d="M10.7815 11.4999C10.7815 11.8967 11.1033 12.2185 11.5001 12.2185C11.897 12.2185 12.2187 11.8967 12.2187 11.4999C12.2187 11.103 11.897 10.7812 11.5001 10.7812C11.1033 10.7812 10.7815 11.103 10.7815 11.4999Z" stroke="#B0B0B0" stroke-width="1.79965" stroke-linecap="round" stroke-linejoin="round"/>
<path d="M10.7815 16.5311C10.7815 16.928 11.1033 17.2497 11.5001 17.2497C11.897 17.2497 12.2187 16.928 12.2187 16.5311C12.2187 16.1342 11.897 15.8125 11.5001 15.8125C11.1033 15.8125 10.7815 16.1342 10.7815 16.5311Z" stroke="#B0B0B0" stroke-width="1.79965" stroke-linecap="round" stroke-linejoin="round"/>
<path d="M10.7815 6.46861C10.7815 6.86549 11.1033 7.18722 11.5001 7.18722C11.897 7.18722 12.2187 6.86549 12.2187 6.46861C12.2187 6.07173 11.897 5.75 11.5001 5.75C11.1033 5.75 10.7815 6.07173 10.7815 6.46861Z" stroke="#B0B0B0" stroke-width="1.79965" stroke-linecap="round" stroke-linejoin="round"/>
</svg>
