<svg width="16" height="16" viewBox="0 0 16 16" fill="none" xmlns="http://www.w3.org/2000/svg">
<path d="M13.3346 9.66667V15.6667L11.1126 14H9.3346V11.3333H11.1126L13.3346 9.66667ZM14.0013 2C14.1781 2 14.3477 2.07024 14.4727 2.19526C14.5977 2.32029 14.6679 2.48986 14.6679 2.66667V9.686C14.0061 9.09297 13.1656 8.73721 12.2792 8.67488C11.3927 8.61255 10.5107 8.84718 9.77242 9.34176C9.03411 9.83633 8.48151 10.5627 8.20184 11.4062C7.92217 12.2497 7.93136 13.1623 8.22794 14H2.0026C1.82579 14 1.65622 13.9298 1.5312 13.8047C1.40618 13.6797 1.33594 13.5101 1.33594 13.3333V2.66667C1.33594 2.48986 1.40618 2.32029 1.5312 2.19526C1.65622 2.07024 1.82579 2 2.0026 2H14.0026H14.0013ZM14.0013 11.3333C14.3457 11.3341 14.6764 11.4682 14.9242 11.7074C15.172 11.9466 15.3176 12.2725 15.3305 12.6166C15.3434 12.9608 15.2227 13.2966 14.9935 13.5537C14.7644 13.8109 14.4447 13.9694 14.1013 13.996L14.0013 14V11.3333ZM3.76594 4.15867L2.90327 5.17467L8.04994 9.54467L13.1039 5.17133L12.2319 4.16267L8.04127 7.788L3.76594 4.15867Z" fill="#717171"/>
</svg>
