<svg width="20" height="20" viewBox="0 0 20 20" fill="none" xmlns="http://www.w3.org/2000/svg">
<mask id="mask0_1_66371" style="mask-type:alpha" maskUnits="userSpaceOnUse" x="0" y="0" width="20" height="20">
<rect width="20" height="20" fill="#D9D9D9"/>
</mask>
<g mask="url(#mask0_1_66371)">
<path d="M5 18.3332C4.30556 18.3332 3.71528 18.0901 3.22917 17.604C2.74306 17.1179 2.5 16.5276 2.5 15.8332V13.3332H5V1.6665L6.25 2.9165L7.5 1.6665L8.75 2.9165L10 1.6665L11.25 2.9165L12.5 1.6665L13.75 2.9165L15 1.6665L16.25 2.9165L17.5 1.6665V15.8332C17.5 16.5276 17.2569 17.1179 16.7708 17.604C16.2847 18.0901 15.6944 18.3332 15 18.3332H5ZM15 16.6665C15.2361 16.6665 15.434 16.5866 15.5938 16.4269C15.7535 16.2672 15.8333 16.0693 15.8333 15.8332V4.1665H6.66667V13.3332H14.1667V15.8332C14.1667 16.0693 14.2465 16.2672 14.4062 16.4269C14.566 16.5866 14.7639 16.6665 15 16.6665ZM7.5 7.49984V5.83317H12.5V7.49984H7.5ZM7.5 9.99984V8.33317H12.5V9.99984H7.5ZM14.1667 7.49984C13.9306 7.49984 13.7326 7.41998 13.5729 7.26025C13.4132 7.10053 13.3333 6.90262 13.3333 6.6665C13.3333 6.43039 13.4132 6.23248 13.5729 6.07275C13.7326 5.91303 13.9306 5.83317 14.1667 5.83317C14.4028 5.83317 14.6007 5.91303 14.7604 6.07275C14.9201 6.23248 15 6.43039 15 6.6665C15 6.90262 14.9201 7.10053 14.7604 7.26025C14.6007 7.41998 14.4028 7.49984 14.1667 7.49984ZM14.1667 9.99984C13.9306 9.99984 13.7326 9.91998 13.5729 9.76025C13.4132 9.60053 13.3333 9.40261 13.3333 9.1665C13.3333 8.93039 13.4132 8.73248 13.5729 8.57275C13.7326 8.41303 13.9306 8.33317 14.1667 8.33317C14.4028 8.33317 14.6007 8.41303 14.7604 8.57275C14.9201 8.73248 15 8.93039 15 9.1665C15 9.40261 14.9201 9.60053 14.7604 9.76025C14.6007 9.91998 14.4028 9.99984 14.1667 9.99984ZM5 16.6665H12.5V14.9998H4.16667V15.8332C4.16667 16.0693 4.24653 16.2672 4.40625 16.4269C4.56597 16.5866 4.76389 16.6665 5 16.6665Z" fill="#717171"/>
</g>
</svg>
