<svg width="20" height="20" viewBox="0 0 20 20" fill="none" xmlns="http://www.w3.org/2000/svg">
<mask id="mask0_1_66389" style="mask-type:alpha" maskUnits="userSpaceOnUse" x="0" y="0" width="20" height="20">
<rect width="20" height="20" fill="#D9D9D9"/>
</mask>
<g mask="url(#mask0_1_66389)">
<path d="M9.1665 18.2913C8.11095 18.1802 7.12831 17.892 6.21859 17.4268C5.30887 16.9615 4.5172 16.3573 3.84359 15.6143C3.16998 14.8712 2.63873 14.0205 2.24984 13.0622C1.86095 12.1038 1.6665 11.083 1.6665 9.99967C1.6665 8.73579 1.91998 7.56912 2.42692 6.49967C2.93387 5.43023 3.62484 4.51356 4.49984 3.74967H2.49984V2.08301H7.49984V7.08301H5.83317V4.81217C5.06928 5.42329 4.46164 6.17676 4.01025 7.07259C3.55886 7.96842 3.33317 8.94412 3.33317 9.99967C3.33317 11.708 3.8922 13.1837 5.01025 14.4268C6.12831 15.6698 7.51373 16.3955 9.1665 16.6038V18.2913ZM8.81234 13.833L5.2915 10.2913L6.45817 9.12467L8.81234 11.4788L13.5415 6.74967L14.7082 7.93717L8.81234 13.833ZM12.4998 17.9163V12.9163H14.1665V15.1872C14.9304 14.5622 15.538 13.8052 15.9894 12.9163C16.4408 12.0275 16.6665 11.0552 16.6665 9.99967C16.6665 8.29134 16.1075 6.81565 14.9894 5.57259C13.8714 4.32954 12.4859 3.60384 10.8332 3.39551V1.70801C12.9443 1.91634 14.7221 2.80523 16.1665 4.37467C17.6109 5.94412 18.3332 7.81912 18.3332 9.99967C18.3332 11.2636 18.0797 12.4302 17.5728 13.4997C17.0658 14.5691 16.3748 15.4858 15.4998 16.2497H17.4998V17.9163H12.4998Z" fill="#717171"/>
</g>
</svg>
