<svg width="20" height="20" viewBox="0 0 20 20" fill="none" xmlns="http://www.w3.org/2000/svg">
<mask id="mask0_5226_22023" style="mask-type:alpha" maskUnits="userSpaceOnUse" x="0" y="0" width="20" height="20">
<rect width="20" height="20" fill="#D9D9D9"/>
</mask>
<g mask="url(#mask0_5226_22023)">
<path d="M14.1693 14.166C14.5165 14.166 14.8116 14.0445 15.0547 13.8014C15.2977 13.5584 15.4193 13.2632 15.4193 12.916C15.4193 12.5688 15.2977 12.2737 15.0547 12.0306C14.8116 11.7875 14.5165 11.666 14.1693 11.666C13.822 11.666 13.5269 11.7875 13.2839 12.0306C13.0408 12.2737 12.9193 12.5688 12.9193 12.916C12.9193 13.2632 13.0408 13.5584 13.2839 13.8014C13.5269 14.0445 13.822 14.166 14.1693 14.166ZM14.1693 16.666C14.5998 16.666 14.9957 16.5653 15.3568 16.3639C15.7179 16.1625 16.0095 15.8952 16.2318 15.5618C15.9262 15.3813 15.5998 15.2424 15.2526 15.1452C14.9054 15.048 14.5443 14.9993 14.1693 14.9993C13.7943 14.9993 13.4332 15.048 13.0859 15.1452C12.7387 15.2424 12.4123 15.3813 12.1068 15.5618C12.329 15.8952 12.6207 16.1625 12.9818 16.3639C13.3429 16.5653 13.7387 16.666 14.1693 16.666ZM10.0026 18.3327C8.07205 17.8466 6.4783 16.7389 5.22135 15.0098C3.96441 13.2806 3.33594 11.3605 3.33594 9.24935V4.16602L10.0026 1.66602L16.6693 4.16602V8.89518C16.4054 8.78407 16.1345 8.68338 15.8568 8.5931C15.579 8.50282 15.2943 8.43685 15.0026 8.39518V5.33268L10.0026 3.45768L5.0026 5.33268V9.24935C5.0026 9.90213 5.08941 10.5549 5.26302 11.2077C5.43663 11.8605 5.67969 12.482 5.99219 13.0723C6.30469 13.6625 6.68316 14.2077 7.1276 14.7077C7.57205 15.2077 8.0651 15.6243 8.60677 15.9577C8.75955 16.4021 8.96094 16.8257 9.21094 17.2285C9.46094 17.6313 9.74566 17.9924 10.0651 18.3118C10.0512 18.3118 10.0408 18.3153 10.0339 18.3223C10.0269 18.3292 10.0165 18.3327 10.0026 18.3327ZM14.1693 18.3327C13.0165 18.3327 12.0339 17.9264 11.2214 17.1139C10.4089 16.3014 10.0026 15.3188 10.0026 14.166C10.0026 13.0132 10.4089 12.0306 11.2214 11.2181C12.0339 10.4056 13.0165 9.99935 14.1693 9.99935C15.322 9.99935 16.3047 10.4056 17.1172 11.2181C17.9297 12.0306 18.3359 13.0132 18.3359 14.166C18.3359 15.3188 17.9297 16.3014 17.1172 17.1139C16.3047 17.9264 15.322 18.3327 14.1693 18.3327Z" fill="#717171"/>
</g>
</svg>
