<svg width="34" height="34" viewBox="0 0 34 34" fill="none" xmlns="http://www.w3.org/2000/svg">
<rect width="34" height="34" rx="17" fill="#F2F2F2"/>
<path d="M22.8359 17.834C23.1193 17.834 23.3943 17.8673 23.6693 17.909V15.334C23.6693 14.4173 22.9276 13.6673 22.0026 13.6673H21.1693V12.0007C21.1693 9.70065 19.3026 7.83398 17.0026 7.83398C14.7026 7.83398 12.8359 9.70065 12.8359 12.0007V13.6673H12.0026C11.0859 13.6673 10.3359 14.409 10.3359 15.334V23.6673C10.3359 24.5923 11.0776 25.334 12.0026 25.334H18.5109C18.0859 24.6007 17.8359 23.7507 17.8359 22.834C17.8359 20.0757 20.0776 17.834 22.8359 17.834ZM14.5026 12.0007C14.5026 10.6173 15.6193 9.50065 17.0026 9.50065C18.3859 9.50065 19.5026 10.6173 19.5026 12.0007V13.6673H14.5026V12.0007ZM17.0026 21.1673C16.0859 21.1673 15.3359 20.4257 15.3359 19.5007C15.3359 18.5757 16.0859 17.834 17.0026 17.834C17.9193 17.834 18.6693 18.5757 18.6693 19.5007C18.6693 20.4257 17.9276 21.1673 17.0026 21.1673ZM25.7526 21.3757L21.7943 25.334L19.5026 22.834L20.4693 21.8673L21.7943 23.1923L24.7859 20.2007L25.7526 21.3757Z" fill="#222222"/>
</svg>
