<svg width="20" height="20" viewBox="0 0 20 20" fill="none" xmlns="http://www.w3.org/2000/svg">
<mask id="mask0_5226_22038" style="mask-type:alpha" maskUnits="userSpaceOnUse" x="0" y="0" width="20" height="20">
<rect width="20" height="20" fill="#D9D9D9"/>
</mask>
<g mask="url(#mask0_5226_22038)">
<path d="M10.0026 10.0007C9.08594 10.0007 8.30122 9.67426 7.64844 9.02148C6.99566 8.36871 6.66927 7.58398 6.66927 6.66732C6.66927 5.75065 6.99566 4.96593 7.64844 4.31315C8.30122 3.66037 9.08594 3.33398 10.0026 3.33398C10.9193 3.33398 11.704 3.66037 12.3568 4.31315C13.0095 4.96593 13.3359 5.75065 13.3359 6.66732C13.3359 7.58398 13.0095 8.36871 12.3568 9.02148C11.704 9.67426 10.9193 10.0007 10.0026 10.0007ZM3.33594 16.6673V14.334C3.33594 13.8618 3.45747 13.4277 3.70052 13.0319C3.94358 12.6361 4.26649 12.334 4.66927 12.1257C5.53038 11.6951 6.40538 11.3722 7.29427 11.1569C8.18316 10.9416 9.08594 10.834 10.0026 10.834C10.9193 10.834 11.822 10.9416 12.7109 11.1569C13.5998 11.3722 14.4748 11.6951 15.3359 12.1257C15.7387 12.334 16.0616 12.6361 16.3047 13.0319C16.5477 13.4277 16.6693 13.8618 16.6693 14.334V16.6673H3.33594ZM5.0026 15.0007H15.0026V14.334C15.0026 14.1812 14.9644 14.0423 14.888 13.9173C14.8116 13.7923 14.7109 13.6951 14.5859 13.6257C13.8359 13.2507 13.079 12.9694 12.3151 12.7819C11.5512 12.5944 10.7804 12.5007 10.0026 12.5007C9.22483 12.5007 8.45399 12.5944 7.6901 12.7819C6.92622 12.9694 6.16927 13.2507 5.41927 13.6257C5.29427 13.6951 5.19358 13.7923 5.11719 13.9173C5.0408 14.0423 5.0026 14.1812 5.0026 14.334V15.0007ZM10.0026 8.33398C10.4609 8.33398 10.8533 8.17079 11.1797 7.8444C11.5061 7.51801 11.6693 7.12565 11.6693 6.66732C11.6693 6.20898 11.5061 5.81662 11.1797 5.49023C10.8533 5.16385 10.4609 5.00065 10.0026 5.00065C9.54427 5.00065 9.15191 5.16385 8.82552 5.49023C8.49913 5.81662 8.33594 6.20898 8.33594 6.66732C8.33594 7.12565 8.49913 7.51801 8.82552 7.8444C9.15191 8.17079 9.54427 8.33398 10.0026 8.33398Z" fill="#717171"/>
</g>
</svg>
