<svg width="34" height="34" viewBox="0 0 34 34" fill="none" xmlns="http://www.w3.org/2000/svg">
<rect width="34" height="34" rx="17" fill="#F2F2F2"/>
<path d="M17.0026 10.334C17.8867 10.334 18.7345 10.6852 19.3596 11.3103C19.9847 11.9354 20.3359 12.7833 20.3359 13.6673C20.3359 14.5514 19.9847 15.3992 19.3596 16.0243C18.7345 16.6495 17.8867 17.0007 17.0026 17.0007C16.1185 17.0007 15.2707 16.6495 14.6456 16.0243C14.0205 15.3992 13.6693 14.5514 13.6693 13.6673C13.6693 12.7833 14.0205 11.9354 14.6456 11.3103C15.2707 10.6852 16.1185 10.334 17.0026 10.334ZM17.0026 18.6673C20.6859 18.6673 23.6693 20.159 23.6693 22.0007V23.6673H10.3359V22.0007C10.3359 20.159 13.3193 18.6673 17.0026 18.6673Z" fill="#222222"/>
</svg>
