<svg width="16" height="16" viewBox="0 0 16 16" fill="none" xmlns="http://www.w3.org/2000/svg">
<path d="M13.9948 7.33385H11.3681C11.3217 7.32754 11.2746 7.32754 11.2281 7.33385H11.1148C11.08 7.35373 11.0465 7.37601 11.0148 7.40052C10.9777 7.42503 10.9421 7.45175 10.9081 7.48052C10.8859 7.50778 10.8658 7.53676 10.8481 7.56719C10.8176 7.60918 10.7908 7.6538 10.7681 7.70052L9.70146 10.6405L6.92146 3.10719C6.87475 2.97849 6.78954 2.86729 6.67742 2.78871C6.5653 2.71012 6.43171 2.66797 6.29479 2.66797C6.15788 2.66797 6.02428 2.71012 5.91216 2.78871C5.80004 2.86729 5.71484 2.97849 5.66812 3.10719L4.12812 7.33385H1.99479C1.81798 7.33385 1.64841 7.40409 1.52339 7.52911C1.39836 7.65414 1.32813 7.82371 1.32812 8.00052C1.32813 8.17733 1.39836 8.3469 1.52339 8.47192C1.64841 8.59695 1.81798 8.66719 1.99479 8.66719H4.86146C4.89935 8.64894 4.93512 8.62659 4.96812 8.60052C5.00525 8.57601 5.04087 8.54929 5.07479 8.52052L5.13479 8.43385C5.16657 8.39268 5.19342 8.34793 5.21479 8.30052L6.29479 5.28052L9.06812 12.8939C9.11471 13.0227 9.19986 13.1341 9.31199 13.2128C9.42412 13.2915 9.55778 13.3338 9.69479 13.3339C9.8318 13.3338 9.96546 13.2915 10.0776 13.2128C10.1897 13.1341 10.2749 13.0227 10.3215 12.8939L11.8548 8.66719H13.9948C14.1716 8.66719 14.3412 8.59695 14.4662 8.47192C14.5912 8.3469 14.6615 8.17733 14.6615 8.00052C14.6615 7.82371 14.5912 7.65414 14.4662 7.52911C14.3412 7.40409 14.1716 7.33385 13.9948 7.33385Z" fill="#717171"/>
</svg>
