<svg width="20" height="20" viewBox="0 0 20 20" fill="none" xmlns="http://www.w3.org/2000/svg">
<mask id="mask0_1_66383" style="mask-type:alpha" maskUnits="userSpaceOnUse" x="0" y="0" width="20" height="20">
<rect width="20" height="20" fill="#D9D9D9"/>
</mask>
<g mask="url(#mask0_1_66383)">
<path d="M3.33317 14.1665V15.8332H16.6665V14.1665H3.33317ZM3.33317 4.99984H5.1665C5.09706 4.87484 5.05192 4.74289 5.03109 4.604C5.01025 4.46512 4.99984 4.31928 4.99984 4.1665C4.99984 3.47206 5.24289 2.88178 5.729 2.39567C6.21512 1.90956 6.80539 1.6665 7.49984 1.6665C7.9165 1.6665 8.30192 1.77414 8.65609 1.98942C9.01025 2.2047 9.31928 2.47206 9.58317 2.7915L9.99984 3.33317L10.4165 2.7915C10.6665 2.45817 10.9721 2.18734 11.3332 1.979C11.6943 1.77067 12.0832 1.6665 12.4998 1.6665C13.1943 1.6665 13.7846 1.90956 14.2707 2.39567C14.7568 2.88178 14.9998 3.47206 14.9998 4.1665C14.9998 4.31928 14.9894 4.46512 14.9686 4.604C14.9478 4.74289 14.9026 4.87484 14.8332 4.99984H16.6665C17.1248 4.99984 17.5172 5.16303 17.8436 5.48942C18.17 5.81581 18.3332 6.20817 18.3332 6.6665V15.8332C18.3332 16.2915 18.17 16.6839 17.8436 17.0103C17.5172 17.3366 17.1248 17.4998 16.6665 17.4998H3.33317C2.87484 17.4998 2.48248 17.3366 2.15609 17.0103C1.8297 16.6839 1.6665 16.2915 1.6665 15.8332V6.6665C1.6665 6.20817 1.8297 5.81581 2.15609 5.48942C2.48248 5.16303 2.87484 4.99984 3.33317 4.99984ZM3.33317 11.6665H16.6665V6.6665H12.4165L14.1665 9.0415L12.8332 9.99984L9.99984 6.1665L7.1665 9.99984L5.83317 9.0415L7.5415 6.6665H3.33317V11.6665ZM7.49984 4.99984C7.73595 4.99984 7.93387 4.91998 8.09359 4.76025C8.25331 4.60053 8.33317 4.40261 8.33317 4.1665C8.33317 3.93039 8.25331 3.73248 8.09359 3.57275C7.93387 3.41303 7.73595 3.33317 7.49984 3.33317C7.26373 3.33317 7.06581 3.41303 6.90609 3.57275C6.74636 3.73248 6.6665 3.93039 6.6665 4.1665C6.6665 4.40261 6.74636 4.60053 6.90609 4.76025C7.06581 4.91998 7.26373 4.99984 7.49984 4.99984ZM12.4998 4.99984C12.7359 4.99984 12.9339 4.91998 13.0936 4.76025C13.2533 4.60053 13.3332 4.40261 13.3332 4.1665C13.3332 3.93039 13.2533 3.73248 13.0936 3.57275C12.9339 3.41303 12.7359 3.33317 12.4998 3.33317C12.2637 3.33317 12.0658 3.41303 11.9061 3.57275C11.7464 3.73248 11.6665 3.93039 11.6665 4.1665C11.6665 4.40261 11.7464 4.60053 11.9061 4.76025C12.0658 4.91998 12.2637 4.99984 12.4998 4.99984Z" fill="#717171"/>
</g>
</svg>
