<svg width="20" height="20" viewBox="0 0 20 20" fill="none" xmlns="http://www.w3.org/2000/svg">
<mask id="mask0_5226_22017" style="mask-type:alpha" maskUnits="userSpaceOnUse" x="0" y="0" width="20" height="20">
<rect width="20" height="20" fill="#D9D9D9"/>
</mask>
<g mask="url(#mask0_5226_22017)">
<path d="M10.0026 10.8327C9.18316 10.8327 8.49219 10.5514 7.92969 9.98893C7.36719 9.42643 7.08594 8.73546 7.08594 7.91602C7.08594 7.09657 7.36719 6.4056 7.92969 5.8431C8.49219 5.2806 9.18316 4.99935 10.0026 4.99935C10.822 4.99935 11.513 5.2806 12.0755 5.8431C12.638 6.4056 12.9193 7.09657 12.9193 7.91602C12.9193 8.73546 12.638 9.42643 12.0755 9.98893C11.513 10.5514 10.822 10.8327 10.0026 10.8327ZM10.0026 9.16602C10.3637 9.16602 10.6623 9.04796 10.8984 8.81185C11.1345 8.57574 11.2526 8.27713 11.2526 7.91602C11.2526 7.5549 11.1345 7.25629 10.8984 7.02018C10.6623 6.78407 10.3637 6.66602 10.0026 6.66602C9.64149 6.66602 9.34288 6.78407 9.10677 7.02018C8.87066 7.25629 8.7526 7.5549 8.7526 7.91602C8.7526 8.27713 8.87066 8.57574 9.10677 8.81185C9.34288 9.04796 9.64149 9.16602 10.0026 9.16602ZM10.0026 18.3327C8.07205 17.8466 6.4783 16.7389 5.22135 15.0098C3.96441 13.2806 3.33594 11.3605 3.33594 9.24935V4.16602L10.0026 1.66602L16.6693 4.16602V9.24935C16.6693 11.3605 16.0408 13.2806 14.7839 15.0098C13.5269 16.7389 11.9332 17.8466 10.0026 18.3327ZM10.0026 3.43685L5.0026 5.31185V9.24935C5.0026 9.99935 5.10677 10.7285 5.3151 11.4368C5.52344 12.1452 5.80816 12.8118 6.16927 13.4368C6.7526 13.1452 7.36372 12.916 8.0026 12.7493C8.64149 12.5827 9.30816 12.4993 10.0026 12.4993C10.697 12.4993 11.3637 12.5827 12.0026 12.7493C12.6415 12.916 13.2526 13.1452 13.8359 13.4368C14.197 12.8118 14.4818 12.1452 14.6901 11.4368C14.8984 10.7285 15.0026 9.99935 15.0026 9.24935V5.31185L10.0026 3.43685ZM10.0026 14.166C9.5026 14.166 9.01649 14.2216 8.54427 14.3327C8.07205 14.4438 7.62066 14.5966 7.1901 14.791C7.59288 15.2077 8.03038 15.5688 8.5026 15.8743C8.97483 16.1799 9.47483 16.416 10.0026 16.5827C10.5304 16.416 11.0304 16.1799 11.5026 15.8743C11.9748 15.5688 12.4123 15.2077 12.8151 14.791C12.3845 14.5966 11.9332 14.4438 11.4609 14.3327C10.9887 14.2216 10.5026 14.166 10.0026 14.166Z" fill="#717171"/>
</g>
</svg>
