<svg width="16" height="16" viewBox="0 0 16 16" fill="none" xmlns="http://www.w3.org/2000/svg">
<path d="M13.3281 2.66602H2.66146C1.92612 2.66602 1.32812 3.26402 1.32812 3.99935V11.9993C1.32812 12.7347 1.92612 13.3327 2.66146 13.3327H13.3281C14.0635 13.3327 14.6615 12.7347 14.6615 11.9993V3.99935C14.6615 3.26402 14.0635 2.66602 13.3281 2.66602ZM5.80479 5.33268C6.57212 5.33268 7.13812 5.89868 7.13812 6.66602C7.13812 7.43335 6.57212 7.99935 5.80479 7.99935C5.03746 7.99935 4.47146 7.43335 4.47146 6.66602C4.47146 5.89868 5.03679 5.33268 5.80479 5.33268ZM8.28146 10.666H3.32812V10.356C3.32812 9.44068 4.44546 8.49935 5.80479 8.49935C7.16412 8.49935 8.28146 9.44068 8.28146 10.356V10.666ZM12.6615 9.99935H9.99479V8.66602H12.6615V9.99935ZM12.6615 7.33268H9.32812V5.99935H12.6615V7.33268Z" fill="#717171"/>
</svg>
