<svg width="129" height="128" viewBox="0 0 129 128" fill="none" xmlns="http://www.w3.org/2000/svg">
<circle cx="64.5" cy="64" r="62.0111" stroke="#538D60" stroke-width="3.97778"/>
<mask id="mask0_5735_25245" style="mask-type:alpha" maskUnits="userSpaceOnUse" x="42" y="42" width="45" height="44">
<rect x="42.5" y="42" width="44" height="44" fill="#D9D9D9"/>
</mask>
<g mask="url(#mask0_5735_25245)">
<path d="M60.0091 74.2199C59.7647 74.2199 59.5355 74.1814 59.3216 74.1044C59.1077 74.0286 58.9091 73.8991 58.7258 73.7158L50.8425 65.8324C50.5064 65.4963 50.3456 65.0606 50.3603 64.5253C50.3762 63.9911 50.5522 63.556 50.8883 63.2199C51.2244 62.8838 51.6522 62.7158 52.1716 62.7158C52.6911 62.7158 53.1189 62.8838 53.455 63.2199L60.0091 69.7741L75.5466 54.2366C75.8827 53.9005 76.3185 53.7324 76.8538 53.7324C77.3879 53.7324 77.823 53.9005 78.1591 54.2366C78.4952 54.5727 78.6633 55.0078 78.6633 55.5419C78.6633 56.0773 78.4952 56.513 78.1591 56.8491L61.2925 73.7158C61.1091 73.8991 60.9105 74.0286 60.6966 74.1044C60.4827 74.1814 60.2536 74.2199 60.0091 74.2199Z" fill="#538D60"/>
</g>
</svg>
