<svg width="20" height="20" viewBox="0 0 20 20" fill="none" xmlns="http://www.w3.org/2000/svg">
<path d="M8.33317 3.33337C7.44912 3.33337 6.60127 3.68456 5.97615 4.30968C5.35103 4.93481 4.99984 5.78265 4.99984 6.66671C4.99984 7.55076 5.35103 8.39861 5.97615 9.02373C6.60127 9.64885 7.44912 10 8.33317 10C9.21723 10 10.0651 9.64885 10.6902 9.02373C11.3153 8.39861 11.6665 7.55076 11.6665 6.66671C11.6665 5.78265 11.3153 4.93481 10.6902 4.30968C10.0651 3.68456 9.21723 3.33337 8.33317 3.33337ZM14.5832 10.8334C12.4998 10.8334 10.8332 12.5 10.8332 14.5834C10.8332 16.6667 12.4998 18.3334 14.5832 18.3334C16.6665 18.3334 18.3332 16.6667 18.3332 14.5834C18.3332 12.5 16.6665 10.8334 14.5832 10.8334ZM8.33317 11.6667C4.64984 11.6667 1.6665 13.1584 1.6665 15V16.6667H9.58317C9.30812 16.0066 9.1665 15.2985 9.1665 14.5834C9.17007 13.5953 9.44384 12.627 9.95817 11.7834C9.43317 11.7167 8.89984 11.6667 8.33317 11.6667ZM14.5832 12.0834C15.9665 12.0834 17.0832 13.2 17.0832 14.5834C17.0832 15.05 16.9582 15.4834 16.7332 15.8334L13.3332 12.4334C13.6832 12.2084 14.1165 12.0834 14.5832 12.0834ZM12.4332 13.3334L15.8332 16.7334C15.4832 16.9584 15.0498 17.0834 14.5832 17.0834C13.1998 17.0834 12.0832 15.9667 12.0832 14.5834C12.0832 14.1167 12.2082 13.6834 12.4332 13.3334Z" fill="#717171"/>
</svg>
