<svg width="20" height="20" viewBox="0 0 20 20" fill="none" xmlns="http://www.w3.org/2000/svg">
<path d="M12.5001 11.6666C14.7251 11.6666 19.1668 12.7749 19.1668 14.9999V16.6666H5.83346V14.9999C5.83346 12.7749 10.2751 11.6666 12.5001 11.6666ZM12.5001 9.99992C11.6161 9.99992 10.7682 9.64873 10.1431 9.02361C9.51799 8.39849 9.1668 7.55064 9.1668 6.66659C9.1668 5.78253 9.51799 4.93468 10.1431 4.30956C10.7682 3.68444 11.6161 3.33325 12.5001 3.33325C13.3842 3.33325 14.232 3.68444 14.8572 4.30956C15.4823 4.93468 15.8335 5.78253 15.8335 6.66659C15.8335 7.55064 15.4823 8.39849 14.8572 9.02361C14.232 9.64873 13.3842 9.99992 12.5001 9.99992ZM4.1668 7.99159L5.93346 6.21659L7.1168 7.39992L5.3418 9.16658L7.1168 10.9333L5.93346 12.1166L4.1668 10.3416L2.40013 12.1166L1.2168 10.9333L2.9918 9.16658L1.2168 7.39992L2.40013 6.21659L4.1668 7.99159Z" fill="#717171"/>
</svg>
