<svg width="20" height="20" viewBox="0 0 20 20" fill="none" xmlns="http://www.w3.org/2000/svg">
<path d="M15 15.8334H5V14.6667C5 13 8.33333 12.0834 10 12.0834C11.6667 12.0834 15 13 15 14.6667M10 5.83337C10.663 5.83337 11.2989 6.09677 11.7678 6.56561C12.2366 7.03445 12.5 7.67033 12.5 8.33337C12.5 8.99642 12.2366 9.6323 11.7678 10.1011C11.2989 10.57 10.663 10.8334 10 10.8334C9.33696 10.8334 8.70107 10.57 8.23223 10.1011C7.76339 9.6323 7.5 8.99642 7.5 8.33337C7.5 7.67033 7.76339 7.03445 8.23223 6.56561C8.70107 6.09677 9.33696 5.83337 10 5.83337ZM10 2.50004C10.221 2.50004 10.433 2.58784 10.5893 2.74412C10.7455 2.9004 10.8333 3.11236 10.8333 3.33337C10.8333 3.55439 10.7455 3.76635 10.5893 3.92263C10.433 4.07891 10.221 4.16671 10 4.16671C9.77899 4.16671 9.56702 4.07891 9.41074 3.92263C9.25446 3.76635 9.16667 3.55439 9.16667 3.33337C9.16667 3.11236 9.25446 2.9004 9.41074 2.74412C9.56702 2.58784 9.77899 2.50004 10 2.50004ZM15.8333 2.50004H12.35C12 1.53337 11.0833 0.833374 10 0.833374C8.91667 0.833374 8 1.53337 7.65 2.50004H4.16667C3.72464 2.50004 3.30072 2.67564 2.98816 2.9882C2.67559 3.30076 2.5 3.72468 2.5 4.16671V15.8334C2.5 16.2754 2.67559 16.6993 2.98816 17.0119C3.30072 17.3244 3.72464 17.5 4.16667 17.5H15.8333C16.2754 17.5 16.6993 17.3244 17.0118 17.0119C17.3244 16.6993 17.5 16.2754 17.5 15.8334V4.16671C17.5 3.72468 17.3244 3.30076 17.0118 2.9882C16.6993 2.67564 16.2754 2.50004 15.8333 2.50004Z" fill="#717171"/>
</svg>
