<svg width="20" height="20" viewBox="0 0 20 20" fill="none" xmlns="http://www.w3.org/2000/svg">
<path d="M13.3332 14.1666V15.8333H1.6665V14.1666C1.6665 14.1666 1.6665 10.8333 7.49984 10.8333C13.3332 10.8333 13.3332 14.1666 13.3332 14.1666ZM10.4165 6.24996C10.4165 5.6731 10.2454 5.10919 9.92496 4.62955C9.60447 4.14991 9.14895 3.77607 8.616 3.55531C8.08305 3.33456 7.4966 3.2768 6.93082 3.38934C6.36505 3.50188 5.84535 3.77966 5.43744 4.18757C5.02954 4.59547 4.75175 5.11517 4.63921 5.68095C4.52667 6.24673 4.58443 6.83317 4.80519 7.36612C5.02594 7.89907 5.39978 8.3546 5.87942 8.67508C6.35907 8.99557 6.92298 9.16663 7.49984 9.16663C8.27339 9.16663 9.01525 8.85934 9.56223 8.31236C10.1092 7.76538 10.4165 7.02351 10.4165 6.24996ZM13.2832 10.8333C13.7955 11.2298 14.2146 11.7337 14.5112 12.3096C14.8078 12.8854 14.9746 13.5193 14.9998 14.1666V15.8333H18.3332V14.1666C18.3332 14.1666 18.3332 11.1416 13.2832 10.8333ZM12.4998 3.3333C11.9262 3.3301 11.3653 3.50159 10.8915 3.82496C11.3977 4.53224 11.6699 5.3802 11.6699 6.24996C11.6699 7.11972 11.3977 7.96768 10.8915 8.67496C11.3653 8.99833 11.9262 9.16982 12.4998 9.16663C13.2734 9.16663 14.0153 8.85934 14.5622 8.31236C15.1092 7.76538 15.4165 7.02351 15.4165 6.24996C15.4165 5.47641 15.1092 4.73455 14.5622 4.18757C14.0153 3.64059 13.2734 3.3333 12.4998 3.3333Z" fill="#717171"/>
</svg>
