<svg width="16" height="16" viewBox="0 0 16 16" fill="none" xmlns="http://www.w3.org/2000/svg">
<path d="M10.6615 11.3327V12.6661H1.32812V11.3327C1.32812 11.3327 1.32812 8.66605 5.99479 8.66605C10.6615 8.66605 10.6615 11.3327 10.6615 11.3327ZM8.32812 4.99938C8.32812 4.53789 8.19128 4.08677 7.93489 3.70305C7.6785 3.31934 7.31408 3.02027 6.88772 2.84367C6.46136 2.66706 5.9922 2.62085 5.53958 2.71089C5.08696 2.80092 4.6712 3.02315 4.34488 3.34947C4.01855 3.67579 3.79632 4.09155 3.70629 4.54417C3.61626 4.9968 3.66247 5.46595 3.83907 5.89231C4.01568 6.31867 4.31475 6.68309 4.69846 6.93948C5.08218 7.19587 5.5333 7.33272 5.99479 7.33272C6.61363 7.33272 7.20712 7.08688 7.64471 6.6493C8.08229 6.21171 8.32812 5.61822 8.32812 4.99938ZM10.6215 8.66605C11.0313 8.98322 11.3666 9.38634 11.6039 9.84706C11.8412 10.3078 11.9746 10.8149 11.9948 11.3327V12.6661H14.6615V11.3327C14.6615 11.3327 14.6615 8.91272 10.6215 8.66605ZM9.99479 2.66605C9.53592 2.6635 9.08713 2.80069 8.70812 3.05938C9.11309 3.62521 9.33083 4.30357 9.33083 4.99938C9.33083 5.69519 9.11309 6.37356 8.70812 6.93938C9.08713 7.19808 9.53592 7.33527 9.99479 7.33272C10.6136 7.33272 11.2071 7.08688 11.6447 6.6493C12.0823 6.21171 12.3281 5.61822 12.3281 4.99938C12.3281 4.38055 12.0823 3.78705 11.6447 3.34947C11.2071 2.91188 10.6136 2.66605 9.99479 2.66605Z" fill="#717171"/>
</svg>
