<svg width="128" height="128" viewBox="0 0 128 128" fill="none" xmlns="http://www.w3.org/2000/svg">
<circle cx="64" cy="64" r="62.0111" stroke="#EED202" stroke-width="3.97778"/>
<path d="M85.0833 73.167L75.9166 82.3337L69.5 75.917L72.25 73.167L75.9166 76.8337L82.3333 70.417L85.0833 73.167ZM66.0166 78.4837C65.2833 78.667 64.7333 78.667 64 78.667C55.9333 78.667 49.3333 72.067 49.3333 64.0003C49.3333 55.9337 55.9333 49.3337 64 49.3337C72.0666 49.3337 78.6666 55.9337 78.6666 64.0003C78.6666 64.7337 78.6666 65.2837 78.4833 66.017C79.7666 66.2003 80.8666 66.567 81.9666 67.117C82.15 66.017 82.3333 65.1003 82.3333 64.0003C82.3333 53.917 74.0833 45.667 64 45.667C53.9166 45.667 45.6666 53.917 45.6666 64.0003C45.6666 74.0837 53.9166 82.3337 64 82.3337C65.1 82.3337 66.2 82.1503 67.1166 81.967C66.5666 81.0503 66.2 79.767 66.0166 78.4837ZM70.6 67.8503L64.9166 64.5503V54.8337H62.1666V65.8337L68.5833 69.6837C69.1333 68.9503 69.8666 68.4003 70.6 67.8503Z" fill="#EED202"/>
</svg>
